<?xml version="1.0" encoding="utf-8"?>
<!-- Generator: Adobe Illustrator 27.5.0, SVG Export Plug-In . SVG Version: 6.00 Build 0)  -->
<svg version="1.1" xmlns="http://www.w3.org/2000/svg" xmlns:xlink="http://www.w3.org/1999/xlink" x="0px" y="0px"
	 viewBox="0 0 1100 800" style="enable-background:new 0 0 1100 800;" xml:space="preserve">
<g id="Background">
	<rect style="fill:#8EC3CB;" width="1100" height="800"/>
</g>
<g id="Shadow">
	<g style="opacity:0.4;">
		<path style="fill:#F1F2F2;" d="M517.023,638.118c-29.109,0.084-58.218,0.762-87.276,3.892c-10.956,1.18-21.683,3.776-32.664,4.823
			c-21.934,2.092-43.476,5.993-65.488,7.793c-17.726,1.449-35.526,2.305-53.201,4.143c-16.571,1.724-34.916,1.326-51.359-1.522
			c-12.173-2.109-24.402-3.296-36.371-6.682c-13.389-3.789-27.934-6.498-41.884-6.4c-19.892,0.139-39.265,0.155-58.301,6.845
			c-6.683,2.348-14.863,6.209-19.938,11.137c-11.617,11.282-13.189,39.432-1.59,51.133c19.537,19.693,61.233,27.42,88.617,27.785
			c30.008,0.4,59.159-1.758,89.211-3.026c27.924-1.179,55.779-2.856,83.75-2.797c57.127,0.121,114.262,0,171.286-3.696
			c53.575-3.472,107.285-2.28,160.978-2.28c55.06,0,109.747,0.419,164.41,7.506c23.817,3.088,48.081,4.169,72.018,6.332
			c21.437,1.938,42.038-0.038,63.39-1.829c17.929-1.504,35.741-5.964,52.029-13.503c12.893-5.968,35.879-24.507,39.833-38.752
			c11.085-39.935-156.219-38.975-181.907-38.885c-28.736,0.101-57.701,1.016-86.414-0.045c-12.078-0.446-23.979-2.733-35.767-5.238
			c-11.742-2.495-23.572-1.861-35.479-2.91c-49.655-4.374-99.421-3.734-149.235-3.734
			C549.46,638.209,533.242,638.071,517.023,638.118z"/>
	</g>
</g>
<g id="Object">
	<g>
		<g>
			
				<rect x="81.681" y="153.812" transform="matrix(0.9586 -0.2847 0.2847 0.9586 -53.9718 81.6185)" style="fill:#FFFFFF;" width="344.18" height="145.305"/>
			<g>
				<path style="fill:#D34E4E;" d="M161.82,288.987l-42.026-61.584l16.864-5.009l16.828,26.32
					c4.721,7.389,9.151,14.535,13.286,22.539l0.303-0.09c-0.712-8.69-0.991-17.399-0.977-25.864l0.047-31.661l16.359-4.859
					l-2.71,74.87L161.82,288.987z"/>
				<path style="fill:#D34E4E;" d="M261.168,221.68c6.628,22.318-2.885,39.867-22.779,45.775
					c-20.197,5.998-36.54-5.741-42.298-25.13c-6.058-20.398,2.441-39.515,22.536-45.483
					C239.531,190.634,255.591,202.898,261.168,221.68z M212.26,237.194c3.959,13.33,13.008,20.862,23.309,17.803
					c10.401-3.088,13.42-14.754,9.491-27.983c-3.628-12.219-12.605-20.982-23.208-17.834
					C211.451,212.27,208.331,223.965,212.26,237.194z"/>
				<path style="fill:#D34E4E;" d="M275.508,195.224l-18.278,5.428l-3.839-12.926l52.309-15.534l3.839,12.926l-18.581,5.518
					l16.374,55.137l-15.45,4.589L275.508,195.224z"/>
				<path style="fill:#D34E4E;" d="M366.038,197.02l-25.044,7.437l4.798,16.156l27.972-8.307l3.749,12.623l-43.422,12.896
					l-20.214-68.062l42.009-12.476l3.748,12.623l-26.558,7.888l4.198,14.137l25.044-7.437L366.038,197.02z"/>
			</g>
		</g>
		<g>
			
				<rect x="519.428" y="192.903" transform="matrix(0.2999 -0.954 0.954 0.2999 108.8179 749.1763)" style="fill:#FFFFFF;" width="90.807" height="215.092"/>
			<g>
				<path style="fill:#D34E4E;" d="M495.403,300.678l-0.258-46.594l10.488,3.297l-0.477,19.518
					c-0.135,5.478-0.337,10.728-0.99,16.319l0.188,0.06c2.667-4.751,5.566-9.361,8.53-13.743l11.087-16.389l10.174,3.198
					l-27.564,37.848L495.403,300.678z"/>
				<path style="fill:#D34E4E;" d="M570.398,300.515c-4.363,13.88-15.424,19.65-27.797,15.76
					c-12.56-3.949-16.927-15.741-13.136-27.8c3.988-12.687,15.071-19.623,27.569-15.694
					C570.034,276.868,574.07,288.834,570.398,300.515z M539.634,291.465c-2.606,8.29-0.547,15.354,5.857,17.368
					c6.47,2.033,12.109-2.956,14.696-11.183c2.389-7.599,0.8-15.276-5.794-17.35C547.925,278.268,542.221,283.238,539.634,291.465z"
					/>
				<path style="fill:#D34E4E;" d="M587.07,291.816l-11.367-3.574l2.527-8.038l32.533,10.227l-2.527,8.039l-11.556-3.634
					l-10.78,34.291l-9.609-3.021L587.07,291.816z"/>
				<path style="fill:#D34E4E;" d="M633.352,324.377l-15.576-4.897l-3.159,10.048l17.397,5.47l-2.468,7.849l-27.006-8.49
					l13.307-42.329l26.126,8.214l-2.468,7.851l-16.518-5.193l-2.764,8.792l15.576,4.897L633.352,324.377z"/>
			</g>
		</g>
		<g>
			
				<rect x="749.308" y="150.868" transform="matrix(0.9925 -0.122 0.122 0.9925 -18.4375 108.5462)" style="fill:#FFFFFF;" width="255.607" height="107.912"/>
			<g>
				<path style="fill:#D34E4E;" d="M802.314,239.261l-23.426-50.751l13.09-1.61l9.174,21.55c2.573,6.051,4.962,11.883,7.026,18.314
					l0.235-0.028c0.552-6.513,1.427-12.987,2.488-19.245l3.966-23.404l12.698-1.562l-11.299,55.02L802.314,239.261z"/>
				<path style="fill:#D34E4E;" d="M884.124,201.832c2.13,17.323-7.083,29.118-22.525,31.016
					c-15.677,1.927-26.304-8.782-28.154-23.833c-1.946-15.833,6.71-28.913,22.309-30.83
					C871.98,176.191,882.331,187.252,884.124,201.832z M846.036,207.23c1.272,10.347,7.028,17.04,15.024,16.057
					c8.073-0.992,11.754-9.243,10.492-19.511c-1.166-9.485-6.715-17.079-14.945-16.067
					C848.533,188.702,844.774,196.962,846.036,207.23z"/>
				<path style="fill:#D34E4E;" d="M898.008,184.051l-14.188,1.744l-1.234-10.034l40.604-4.992l1.234,10.034l-14.423,1.773
					l5.261,42.799l-11.993,1.474L898.008,184.051z"/>
				<path style="fill:#D34E4E;" d="M964.719,196.619l-19.44,2.39l1.542,12.543l21.713-2.669l1.204,9.798l-33.706,4.143
					l-6.495-52.833l32.608-4.009l1.205,9.799l-20.615,2.535l1.349,10.973l19.44-2.39L964.719,196.619z"/>
			</g>
		</g>
		<g id="XMLID_352_">
			<polygon style="fill:#E4D2B8;" points="626.562,402.869 625.891,409.809 613.118,412.673 606.776,406.437 607.811,398.391 
				614.648,398.89 615.089,397.148 617.497,396.005 			"/>
		</g>
		<g>
			<g>
				<g>
					<polygon style="fill:#3B455A;" points="944.672,510.858 947.399,574.133 939.403,681.721 927.436,682.572 912.897,584.856 
						892.784,502.169 					"/>
					<polygon style="fill:#556362;" points="927.863,687.613 941.264,693.164 947.274,686.234 940.344,680.223 927.404,681.143 
											"/>
				</g>
				<g>
					<polygon style="fill:#3B455A;" points="859.961,488.468 857.335,536.296 865.127,678.508 877.109,679.107 895.067,585.834 
						910.906,483.549 					"/>
					<polygon style="fill:#556362;" points="876.787,684.156 863.507,689.987 857.352,683.184 864.154,677.03 877.111,677.677 					
						"/>
				</g>
				<g>
					<path style="fill:#D34E4E;" d="M929.629,347.57l-37.39-4.006c0,0-20.8,2.223-34.914,51.62
						c-7.852,27.482-10.242,70.782-10.818,103.793c0.883,4.709,6.013,25.335,27.706,21.836c37.252-6.009,57.08-12.017,73.303-9.013
						c13.819,3.004,12.651-16.022,11.132-30.542l-5.507-44.926L929.629,347.57z"/>
				</g>
				<g>
					<path style="fill:#A0734B;" d="M922.409,301.028c-9.424-2.078-19.124-3.939-28.558-2.071c-2.066,0.409-4.284,1.128-5.405,2.912
						c-0.434,0.691-0.664,1.488-0.876,2.276c-2.381,8.85-5.401,21.968,0.425,30.122c1.111,1.555,2.603,2.789,4.206,3.791
						c2.143,1.34,4.516,2.251,6.971,2.735c-0.508,2.2-1.215,4.354-2.111,6.427c2.157,3.253,12.222,3.643,14.082,0.524
						c0.104-2.699,0.208-5.397,0.313-8.096c1.225-0.495,2.409-1.097,3.52-1.829c4.301-2.833,7.135-7.132,8.781-11.941
						c1.792-5.237,4.314-10.215,5.952-15.552c0.597-1.944,1.067-4.164,0.044-5.922c-1.089-1.872-3.44-2.509-5.553-2.979
						C923.605,301.293,923.007,301.16,922.409,301.028z"/>
					<path style="fill:#3B455A;" d="M891.041,306.088c4.658-2.995,11.646-4.285,16.026-3.968
						c13.241,0.959,18.092,10.684,18.8,22.858c3.648-4.636,10.494-10.468,10.907-16.434c0.338-4.883-0.337-11.542-3.073-15.76
						c-2.56-3.946-9.106-6.114-12.999-8.4c-3.67-2.155-7.339-4.311-11.009-6.467c-0.763-0.448-1.548-0.905-2.42-1.056
						c-1.031-0.179-2.082,0.085-3.096,0.347c-8.673,2.242-17.346,4.483-26.019,6.725c-1.666,0.431-3.564,1.06-4.178,2.667
						c-0.373,0.978-0.154,2.07,0.07,3.093c0.985,4.502,2.875,9.104,3.343,13.665c0.53,2.65,2.11,16.231,6.802,14.664
						c1.378-2.253,1.584-5.027,2.657-7.44C887.646,308.799,889.151,307.303,891.041,306.088z"/>
				</g>
				<polygon style="fill:#D34E4E;" points="892.239,343.564 878.42,347.77 827.949,400.644 824.944,418.069 849.072,457.907 
					855.588,443.304 845.373,413.863 861.596,402.447 883.227,353.778 				"/>
			</g>
			<polygon style="fill:#D34E4E;" points="921.698,350.768 947.399,323.002 941.345,247.751 952.638,242.791 968,319.126 
				963.299,338.151 934.486,377.899 			"/>
		</g>
		<g id="XMLID_333_">
			<g id="XMLID_335_">
				<g id="XMLID_349_">
					<g id="XMLID_351_">
						<path style="fill:#323643;" d="M746.882,665.319c1.277-1.406,2.767-2.173,4.451-1.908c1.617,0.254,3.072,1.35,3.739,2.817
							c0.455,1,0.551,2.115,0.641,3.205c0.466,5.645,0.424,19.046-7.094,20.975c-3.16,0.81-5.774-1.435-6.617-4.272
							C740.73,681.861,742.612,670.019,746.882,665.319z"/>
					</g>
					<g id="XMLID_350_">
						<path style="fill:#EAC1A4;" d="M744.208,580.168l0.394,34.428c-0.458,15.292,1.93,30.67,1.473,45.963
							c-0.106,3.516-1.022,7.226-0.136,10.711c0.867,3.409,3.637,4.012,6.481,2.286c3.81-2.313,3.196-7.715,3.83-11.656
							c1.743-10.829,3.788-21.608,5.609-32.424c0.893-5.303-0.947-12.734-0.547-18.101l5.562-28.853L744.208,580.168z"/>
					</g>
				</g>
				<g id="XMLID_348_">
					<polygon style="fill:#40495F;" points="783.544,524.539 768.56,591.1 765.377,653.958 741.617,653.424 735.156,477.602 
						781.216,478.439 					"/>
				</g>
				<g id="XMLID_343_">
					<g id="XMLID_345_">
						<g id="XMLID_347_">
							<path style="fill:#323643;" d="M712.897,664.068c1.333-1.332,2.851-2.012,4.518-1.647c1.601,0.35,3.004,1.533,3.606,3.039
								c0.411,1.027,0.459,2.149,0.502,3.246c0.224,5.677-0.391,19.086-7.967,20.573c-3.184,0.624-5.693-1.776-6.413-4.665
								C706.059,680.26,708.441,668.521,712.897,664.068z"/>
						</g>
						<g id="XMLID_346_">
							<path style="fill:#EAC1A4;" d="M725.421,585.001l-2.016,34.372c-0.165,9.552-1.438,19.03-2.426,28.518
								c-0.919,8.813,0.511,17.992-4.095,26.008c-1.444,2.513-4.364,4.187-6.404,1.133c-1.572-2.354-0.638-6.279-0.94-8.949
								c-1.231-10.898-2.765-21.761-4.074-32.65c-0.642-5.339,1.546-12.676,1.4-18.055l-4.196-29.08L725.421,585.001z"/>
						</g>
					</g>
					<g id="XMLID_344_">
						<polygon style="fill:#40495F;" points="695.354,520.469 693.42,585.081 703.56,650.42 727.728,651.143 726.662,580.43 
							739.451,521.789 743.744,483.403 705.395,478.88 						"/>
					</g>
				</g>
				<g id="XMLID_342_">
					<polygon style="fill:#EBB044;" points="725.691,346.648 767.006,345.662 790.96,390.212 782.446,431.94 780.93,481.876 
						721.996,482.68 702.604,479.532 707.753,426.176 704.801,354.902 					"/>
				</g>
				<g id="XMLID_341_">
					<polygon style="fill:#EBB044;" points="719.183,376 704.265,421.732 681.999,429.726 621.086,413.314 629.275,400.651 
						682.847,402.394 704.883,356.894 					"/>
				</g>
				<g id="XMLID_336_">
					<g id="XMLID_340_">
						<path style="fill:#EAC1A4;" d="M728.278,312.032c6.228-18.108,30.134-11.322,35.062,4.802
							c3.215,10.518-4.908,24.166-15.806,27.187c-0.048,0.414-0.084,0.801-0.086,1.129c-0.008,1.688-0.216,3.353-0.466,5.04
							c-0.093,0.629-9.631-1.204-10.694-1.413c-0.372-0.073-0.787-0.174-0.988-0.486c-0.385-0.599,0.241-2.363,0.311-3.028
							c0.083-0.786,0.165-1.571,0.247-2.357c-5.376-2.624-8.768-8.213-9.715-13.902
							C725.192,323.288,726.406,317.474,728.278,312.032z"/>
					</g>
					<g id="XMLID_337_">
						<g id="XMLID_339_">
							<path style="fill:#3B455A;" d="M743.874,295.669c1.282,1.301,1.786,3.117,2.155,4.86c0.221,1.041,0.411,2.118,0.188,3.148
								c-0.888,4.111-4.965,3.896-8.118,5.221c-3.888,1.634-7.241,4.642-9.418,8.107c-3.409,5.425-1.876,12.406-0.493,18.39
								c0.487,2.109,1.468,5.244-0.168,7.125c-1.662,1.911-5.503,1.616-7.493,0.633c-1.819-0.898-3.313-2.56-5.31-2.895
								c-2.114-0.354-4.97,0.575-5.954-1.364c-0.274-0.539-0.299-1.199-0.645-1.693c-1.168-1.67-4.073,0.286-5.719-0.891
								c-1.012-0.724-1.005-2.267-0.663-3.488c0.342-1.221,0.919-2.459,0.68-3.701c-0.205-1.068-0.975-1.911-1.451-2.883
								c-0.94-1.919-0.615-4.417,0.785-6.037c2.603-3.012,7.639-2.44,10.428-5.273c1.453-1.476,2.016-3.605,2.557-5.62
								c0.542-2.015,1.192-4.139,2.745-5.504c1.918-1.686,4.689-1.4,6.581-3.4c1.112-1.175,1.854-2.705,3.102-3.728
								c1.645-1.348,4.861-2.385,6.908-3.072C737.818,292.512,741.448,293.206,743.874,295.669z"/>
						</g>
						<g id="XMLID_338_">
							<path style="fill:#3B455A;" d="M758.995,324.566c0.111,5.96-2.849,12.403-0.104,17.65c2.771,5.294,9.678,6.249,15.564,6.525
								c0.968,0.045,13.392,1.118,13.445,0.883c0.93-4.151,1.892-8.385,4.062-12.03c2.17-3.646,5.797-6.666,9.952-6.925
								c-1.199-0.208-1.803-1.675-1.665-2.913c0.138-1.237,0.779-2.353,1.15-3.542c0.91-2.921,0.024-6.33-2.178-8.383
								c-4.395-4.096-12.363-2.395-16.13-7.099c-2.336-2.917-2.058-7.148-3.282-10.71c-2.367-6.887-9.907-8.328-15.542-11.438
								c-5.949-3.283-11.55-5.082-18.417-3.938c-8.512,1.418-14.838,10.084-11.555,18.238c4.21,10.459,21.042,9.556,24.194,20.176
								C758.828,322.201,758.973,323.374,758.995,324.566z"/>
						</g>
					</g>
				</g>
			</g>
			<g id="XMLID_334_">
				<polygon style="fill:#E3E3E4;" points="754.784,346.411 741.967,364.527 735.942,364.034 725.899,345.662 				"/>
			</g>
		</g>
		<polygon style="fill:#FFFFFF;" points="285.705,361.78 330.502,394.469 369.566,377.591 375.299,388.13 345.713,408.28 
			329.129,414.479 285.705,393.573 		"/>
		<g>
			<polygon style="fill:#40495F;" points="341.687,674.069 340.747,681.384 354.436,690.58 362.691,684.206 356.317,675.95 
				342.628,666.754 			"/>
			<g>
				<polygon style="fill:#CCD2D9;" points="341.224,671.614 351.781,578.324 339.079,473.886 341.936,451.67 398.67,449.515 
					400.718,485.674 391.193,578.467 355.361,676.381 				"/>
			</g>
			<g>
				<polygon style="fill:#CCD2D9;" points="440.3,459.969 440.449,554.111 421.5,675.302 407.86,675.166 400.363,563.092 
					382.816,450.919 				"/>
				<polygon style="fill:#40495F;" points="407.882,680.918 422.558,688.44 430.006,681.139 422.705,673.69 407.955,673.543 				"/>
			</g>
			<g>
				<path style="fill:#474EBB;" d="M333.208,491.987c0.13-4.079,0.357-7.484,0.389-8.7c0.292-10.944,1.267-21.863,2.637-32.729
					c1.228-9.737,2.777-33.911,4.444-43.588c1.376-7.99,6.17-27.934,9.635-35.345c8.615-18.431,5.953-20.133,43.795-25.606
					c16.585-2.399,20.505,7.937,34.064,19.823c1.337,1.172,1.264,8.152,1.574,10c0.546,3.255,1.132,6.505,1.803,9.739
					c0.528,2.542,1.11,5.076,1.762,7.594l-0.001-0.001c0,0,11.383,51.8,18.91,62.802c7.527,11.001,23.079,26.382-2.935,35.773
					c-4.61,1.49-9.249,2.909-14.047,3.666c0,0-21.275-2.364-32.216-2.283c-10.077,0.075-20.195,1.095-30.101,2.803
					c-6.625,1.107-13.384,2.716-19.31,5.811c-5.654,2.953-9.734,7.297-15.47,10.355c-0.543,0.289-1.139,0.589-1.757,0.504
					C333.089,512.15,332.935,500.574,333.208,491.987z"/>
			</g>
			<g>
				<path style="fill:#EAC1A4;" d="M394.152,351.217c-1.909,0.943-6.416,1.281-11.117-0.56c-0.947-0.371-1.587-1.285-1.573-2.302
					c0.037-2.855,0.267-5.708,0.687-8.533c-3.526-1.24-7.6-3.099-8.215-6.786c-0.193-1.161,0.007-2.348,0.208-3.508
					c0.829-4.796,1.657-9.591,2.486-14.387c0.287-1.659,0.591-3.366,1.493-4.787c1.583-2.494,4.655-3.585,7.565-4.09
					c7.426-1.289,15.518,0.32,21.276,5.183c1.532,1.294,2.918,2.851,3.594,4.739c1.042,2.912,0.263,6.124-0.523,9.116
					c-0.725,2.761-1.45,5.523-2.175,8.284c-0.834,3.176-2.038,6.786-5.098,7.977c-1.625,0.632-3.543,0.448-5.014,1.383
					C395.152,344.598,395.501,348.455,394.152,351.217z"/>
				<path style="fill:#3B3631;" d="M437.012,303.391c0.729-1.198,1.515-2.353,2.394-3.437c1.904-2.348,4.251-4.36,5.783-6.966
					s2.071-6.138,0.233-8.538c-1.187-1.549-3.112-2.323-4.984-2.874c-6.167-1.815-12.822-1.938-19.052-0.352
					c-5.934,1.51-11.244,4.012-17.217,1.781c-5.612-2.096-9.666-1.242-15.531,0.851c-6.347,2.265-14.868,2.799-20.614,5.996
					c-2.399,1.335-4.314,3.422-5.806,5.726c-5.17,7.985-5.199,18.995-0.07,27.007c1.151,1.798,2.527,3.44,3.974,5.009
					c2.995,3.248,6.577,7.259,10.696,8.462c0.098-3.685-3.258-15.305-0.428-18.325c4.491-4.793,14.646-3.121,20.217-1.941
					c6.077,1.287,11.494,5.591,17.519,6.51c4.336,0.662,9.869-1.464,13.556-3.705C432.232,315.83,434.35,307.762,437.012,303.391z"
					/>
			</g>
			<polygon style="fill:#474EBB;" points="362.691,353.103 339.079,373.792 312.739,429.146 346.009,468.726 351.732,446.593 			"/>
		</g>
		<g>
			<g>
				<polygon style="fill:#3B455A;" points="266.889,522.185 216.285,505.204 229.12,592.633 225.306,668.489 225.16,668.997 
					225.28,669.007 225.272,669.173 235.177,669.832 235.179,669.822 235.547,669.852 255.672,601.79 265.29,529.628 
					265.29,529.628 				"/>
				<polygon style="fill:#40495F;" points="234.762,673.296 224.51,673.33 222.141,682.049 222.402,682.119 222.336,682.128 
					239.561,691.679 247.64,692.344 248.4,683.11 246.179,681.579 				"/>
			</g>
			<g>
				<polygon style="fill:#3B455A;" points="306.254,522.715 295.528,673.347 285.628,674.081 273.346,593.263 253.771,512.987 				
					"/>
				<polygon style="fill:#40495F;" points="295.602,676.835 308.944,683.904 307.891,690.134 284.331,687.27 285.455,678.305 				
					"/>
			</g>
			<g>
				<path style="fill:#FFFFFF;" d="M202.485,547.446c-1.056-25.464,21.686-106.439,21.686-106.439l-0.003-0.002
					c2.405-7.608,4.24-15.348,5.338-23.107c0.782-5.524,17.334-68.303,16.237-68.383c11.402,0.833,33.386-1.863,41.831,6.235
					c0.241,0.232,0.472,0.472,0.69,0.721c6.585,7.509,10.005,22.712,13.118,32.07c4.09,12.292,7.231,24.899,9.376,37.674
					c1.876,11.171,2.99,22.454,3.778,33.75c0.677,9.71,0.14,19.366,0.47,28.919c0.366,10.574,3.538,22.039,5.904,32.327
					c2.382,10.36,5.407,20.597,9.591,30.382c-11.32,5.01-23.928,6.364-36.307,6.411c-12.379,0.047-24.742-1.147-37.12-0.957
					c-10.467,0.161-21.062,1.301-31.318-0.797C217.602,554.58,210.073,550.95,202.485,547.446L202.485,547.446z"/>
			</g>
			<g>
				<path style="fill:#3B455A;" d="M284.778,322.89c5.203,2.571,10.628,9.199,10.293,15.368c-0.161,2.971-1.805,5.279-1.851,8.466
					c-0.116,6.282-9.64,12.859-3.81,18.917c2.996,3.114,7.68,3.724,11.98,4.156c0.521,0.052,1.068,0.101,1.551-0.103
					c0.795-0.336,1.182-1.278,1.164-2.141c-0.018-0.863-0.351-1.682-0.613-2.504c-2.736-8.599,1.395-18.627,1.882-27.388
					c0.487-8.744-1.583-18.185-8.752-23.884c-4.807,1.466-8.389,3.496-10.752,7.932L284.778,322.89z"/>
				<path style="fill:#EAC1A4;" d="M281.545,360.209c5.928-0.747,10.966-5.121,13.728-10.42c2.761-5.298,3.527-11.418,3.556-17.393
					c0.094-19.882-24.508-21.223-34.398-7.03C255.811,337.735,264.309,362.38,281.545,360.209z"/>
				<path style="fill:#3B455A;" d="M251.761,362.633c3.054-0.87,6.079-1.829,8.443-4.408c3.821-4.17,4.961-12.022,6.762-17.217
					c1.896-5.476,4.139-11.393,9.116-14.362c3.25-1.939,6.523-1.79,10.085-1.151c2.439,0.437,2.352,1.375,4.664,0.473
					c1.772-0.691,3.703-3.414,4.409-5.088c1.191-2.825,0.617-6.163-0.878-8.84c-2.302-4.119-5.508-6.568-10.001-7.553
					c-15.772-3.457-29.506,3.602-37.008,18.202c-3.606,7.018-3.642,15.612-7.336,22.322c-2.281,4.143-5.691,6.532-7.762,11.013
					c-5.375,11.629-15.186,25.924-17.15,38.654c-0.073,0.471-0.119,1,0.17,1.379c0.589,0.772,1.808,0.212,2.571-0.389
					c4.454-3.504,8.908-7.008,13.361-10.511c1.749-1.376,3.522-2.777,4.824-4.581c3.242-4.493,3.32-11.112,7.674-14.539
					C246.078,364.168,248.932,363.439,251.761,362.633z"/>
			</g>
			<g>
				<g>
					<path style="fill:#D9CAAF;" d="M177.891,338.548c-2.979,0.555-10.74-1.521-12.523-4.26c-4.115-6.322,5.648-4.376,9.174-4.461
						c-0.404-1.224-0.831-2.396-0.987-3.65c-0.143-1.15,10.334,1.836,11.344,2.933c2.423,2.634,1.318,4.624,1.1,7.955
						C183.293,337.495,180.591,338.044,177.891,338.548z"/>
				</g>
				<polygon style="fill:#FFFFFF;" points="260.286,402.097 203.033,392.571 176.669,339.107 187.149,330.471 215.048,367.493 
					244.197,366.254 271.178,367.423 				"/>
			</g>
		</g>
		<polygon style="fill:#A0734B;" points="950.221,243.852 950.221,236.964 942.285,226.465 936.854,231.312 940.411,240.64 
			938.162,243.852 941.345,247.751 		"/>
		<g>
			<polygon style="fill:#D9CAAF;" points="509.221,334.081 517.885,323.151 513.374,319.244 505.784,325.416 504.509,322.579 
				498.235,332.835 502.375,337.529 			"/>
			<polygon style="fill:#474EBB;" points="398.429,349.386 464.434,353.386 498.235,332.835 504.19,338.609 479.216,374.525 
				431.395,384.722 			"/>
		</g>
		<g>
			<g>
				<rect x="380.055" y="414.179" style="fill:#D34E4E;" width="332.931" height="280.801"/>
				<rect x="374.42" y="414.179" style="fill:#D34E4E;" width="344.177" height="70.909"/>
			</g>
			<rect x="380.03" y="485.111" style="fill:#3B455A;" width="332.956" height="10.291"/>
			<polygon style="fill:#FFFFFF;" points="614.607,539.876 590.821,516.09 546.508,560.403 502.195,516.09 478.409,539.876 
				522.721,584.19 478.409,628.502 502.195,652.289 546.508,607.976 590.821,652.289 614.607,628.502 570.294,584.19 			"/>
		</g>
		<polygon style="fill:#D9CAAF;" points="374.989,477.39 387.088,484.328 390.279,479.286 383.045,472.701 385.661,471.016 
			374.584,466.341 370.56,471.134 		"/>
		<g>
			
				<rect x="655.607" y="444.754" transform="matrix(0.9828 -0.1846 0.1846 0.9828 -75.5692 143.6166)" style="fill:#FFFFFF;" width="155.611" height="65.696"/>
			<g>
				<path style="fill:#D34E4E;" d="M689.108,501.489l-16.036-29.647l7.817-1.468l6.343,12.618c1.78,3.542,3.44,6.962,4.927,10.753
					l0.14-0.027c0.084-3.942,0.363-7.87,0.763-11.675l1.493-14.236l7.582-1.424l-4.698,33.541L689.108,501.489z"/>
				<path style="fill:#D34E4E;" d="M736.915,475.84c1.943,10.344-3.15,17.794-12.371,19.526
					c-9.361,1.758-16.165-4.281-17.853-13.267c-1.776-9.454,2.935-17.657,12.248-19.406
					C728.628,460.873,735.279,467.134,736.915,475.84z M714.201,480.542c1.16,6.178,4.88,9.986,9.654,9.089
					c4.821-0.906,6.721-6.011,5.569-12.142c-1.064-5.663-4.693-10.022-9.608-9.099C714.995,469.296,713.049,474.41,714.201,480.542z
					"/>
				<path style="fill:#D34E4E;" d="M744.596,464.608l-8.472,1.592l-1.126-5.99l24.245-4.555l1.126,5.991l-8.612,1.618l4.8,25.554
					l-7.16,1.346L744.596,464.608z"/>
				<path style="fill:#D34E4E;" d="M785.225,469.624l-11.607,2.18l1.407,7.489l12.964-2.435l1.099,5.85l-20.126,3.781l-5.926-31.547
					l19.471-3.657l1.099,5.85l-12.31,2.312l1.231,6.553l11.607-2.18L785.225,469.624z"/>
			</g>
		</g>
		<g id="XMLID_332_">
			<polygon style="fill:#E4D2B8;" points="789.196,482.68 796.151,483.169 799.348,495.863 793.281,502.366 785.21,501.541 
				785.53,494.694 783.777,494.298 782.572,491.922 			"/>
		</g>
		<g id="XMLID_331_">
			<polygon style="fill:#EBB044;" points="762.181,345.777 781.683,354.902 815.945,416.027 801.914,483.549 787.047,483.087 
				790.96,423.674 768.737,389.475 			"/>
		</g>
	</g>
</g>
</svg>
