<svg width="50" height="50" viewBox="0 0 50 50" fill="none" xmlns="http://www.w3.org/2000/svg">
<path d="M45.4605 37.8167C46.457 36.7658 47.0703 35.3481 47.0703 33.7891C47.0703 30.5582 44.4418 27.9297 41.2109 27.9297C37.9801 27.9297 35.3516 30.5582 35.3516 33.7891C35.3516 35.3481 35.9648 36.7658 36.9613 37.8167C35.2417 38.7706 33.8737 40.2842 33.1055 42.11C32.3372 40.2842 30.9692 38.7707 29.2496 37.8167C30.2461 36.7658 30.8594 35.3481 30.8594 33.7891C30.8594 30.5582 28.2309 27.9297 25 27.9297C21.7691 27.9297 19.1406 30.5582 19.1406 33.7891C19.1406 35.3481 19.7539 36.7658 20.7504 37.8167C19.0308 38.7706 17.6628 40.2842 16.8945 42.11C16.1263 40.2842 14.7583 38.7707 13.0387 37.8167C14.0352 36.7658 14.6484 35.3481 14.6484 33.7891C14.6484 30.5582 12.0199 27.9297 8.78906 27.9297C5.5582 27.9297 2.92969 30.5582 2.92969 33.7891C2.92969 35.3481 3.54297 36.7658 4.53945 37.8167C1.83486 39.317 0 42.202 0 45.5078V46.9727H50V45.5078C50 42.202 48.1651 39.317 45.4605 37.8167ZM8.78906 30.8594C10.4045 30.8594 11.7188 32.1736 11.7188 33.7891C11.7188 35.4045 10.4045 36.7188 8.78906 36.7188C7.17363 36.7188 5.85938 35.4045 5.85938 33.7891C5.85938 32.1736 7.17363 30.8594 8.78906 30.8594ZM3.11504 44.043C3.76709 41.5186 6.06377 39.6484 8.78906 39.6484C11.5143 39.6484 13.811 41.5186 14.4631 44.043H3.11504ZM25 30.8594C26.6154 30.8594 27.9297 32.1736 27.9297 33.7891C27.9297 35.4045 26.6154 36.7188 25 36.7188C23.3846 36.7188 22.0703 35.4045 22.0703 33.7891C22.0703 32.1736 23.3846 30.8594 25 30.8594ZM19.326 44.043C19.978 41.5186 22.2747 39.6484 25 39.6484C27.7252 39.6484 30.022 41.5186 30.674 44.043H19.326ZM41.2109 30.8594C42.8264 30.8594 44.1406 32.1736 44.1406 33.7891C44.1406 35.4045 42.8264 36.7188 41.2109 36.7188C39.5955 36.7188 38.2812 35.4045 38.2812 33.7891C38.2812 32.1736 39.5955 30.8594 41.2109 30.8594ZM35.5369 44.043C36.189 41.5186 38.4856 39.6484 41.2109 39.6484C43.9361 39.6484 46.2329 41.5186 46.885 44.043H35.5369Z" fill="#57F0D1"/>
<path d="M33.7891 20.6055C33.7891 17.2996 31.9542 14.4146 29.2496 12.9144C30.2461 11.8635 30.8594 10.4458 30.8594 8.88672C30.8594 5.65586 28.2309 3.02734 25 3.02734C21.7691 3.02734 19.1406 5.65586 19.1406 8.88672C19.1406 10.4458 19.7539 11.8635 20.7504 12.9144C18.0458 14.4146 16.2109 17.2996 16.2109 20.6055V22.0703H33.7891V20.6055ZM25 5.95703C26.6154 5.95703 27.9297 7.27129 27.9297 8.88672C27.9297 10.5021 26.6154 11.8164 25 11.8164C23.3846 11.8164 22.0703 10.5021 22.0703 8.88672C22.0703 7.27129 23.3846 5.95703 25 5.95703ZM19.326 19.1406C19.978 16.6162 22.2747 14.7461 25 14.7461C27.7252 14.7461 30.022 16.6162 30.674 19.1406H19.326Z" fill="#57F0D1"/>
<path d="M42.6758 25H45.6055V10.3516H35.3516V13.2812H42.6758V25Z" fill="#57F0D1"/>
<path d="M7.32422 13.2812H14.6484V10.3516H4.39453V25H7.32422V13.2812Z" fill="#57F0D1"/>
</svg>
