<svg width="50" height="50" viewBox="0 0 50 50" fill="none" xmlns="http://www.w3.org/2000/svg">
<g clip-path="url(#clip0)">
<path d="M49.9052 34.1551C49.9052 32.2502 48.6836 30.6262 46.9829 30.023V14.9051L50.0001 13.6992L24.9676 3.69382L0 13.6992L11.8181 18.4351V25.3883C11.8181 27.5318 13.3209 29.4636 16.0495 30.8279C18.4562 32.0314 21.6236 32.6941 24.9683 32.6941C28.313 32.6941 31.4805 32.0314 33.8871 30.8279C36.6157 29.4636 38.1185 27.5319 38.1185 25.3883V18.4482L44.0605 16.0732V30.0231C42.3598 30.6262 41.1382 32.2503 41.1382 34.1552C41.1382 35.8978 42.1604 37.4059 43.6366 38.1118L41.2132 45.3821L43.9856 46.3062L45.5217 41.6979L47.0578 46.3062L49.8302 45.3821L47.4067 38.1118C48.8828 37.4057 49.9052 35.8977 49.9052 34.1551ZM35.1963 25.3882C35.1963 27.4573 30.8223 29.7716 24.9684 29.7716C19.1145 29.7716 14.7405 27.4573 14.7405 25.3882V19.6061L24.9677 23.7045L35.1964 19.6161V25.3882H35.1963ZM24.9691 20.557L7.85594 13.6992L24.9691 6.84137L42.1264 13.6992L24.9691 20.557ZM45.5217 35.6162C44.716 35.6162 44.0606 34.9607 44.0606 34.1551C44.0606 33.3494 44.716 32.694 45.5217 32.694C46.3274 32.694 46.9828 33.3494 46.9828 34.1551C46.9828 34.9607 46.3274 35.6162 45.5217 35.6162Z" fill="#57F0D1"/>
</g>
<defs>
<clipPath id="clip0">
<rect width="50" height="50" fill="white"/>
</clipPath>
</defs>
</svg>
