<svg width="50" height="50" viewBox="0 0 50 50" fill="none" xmlns="http://www.w3.org/2000/svg">
<path d="M4.4267 27.6388L0.550129 31.6349C-0.199384 32.4076 -0.180732 33.6417 0.592024 34.3913C0.970736 34.7588 1.46009 34.9415 1.94916 34.9415C2.45795 34.9415 2.96635 34.7435 3.34847 34.3495L7.22504 30.3534C7.97456 29.5807 7.95591 28.3466 7.18315 27.597C6.41039 26.8473 5.17631 26.866 4.4267 27.6388Z" fill="#42465F"/>
<path d="M13.4503 28.8985C12.3738 28.8985 11.501 29.7712 11.501 30.8478V48.0019C11.501 49.0784 12.3737 49.9512 13.4503 49.9512H13.4504C14.5269 49.9512 15.3997 49.0785 15.3997 48.0019L15.3995 30.8477C15.3995 29.7712 14.5269 28.8985 13.4503 28.8985Z" fill="#42465F"/>
<path d="M21.0525 24.6101C19.976 24.6101 19.1031 25.4829 19.1031 26.5595V48.002C19.1031 49.0784 19.9759 49.9513 21.0525 49.9513C22.129 49.9513 23.0018 49.0785 23.0018 48.002V26.5594C23.0017 25.4829 22.129 24.6101 21.0525 24.6101Z" fill="#42465F"/>
<path d="M44.152 0.048645H38.3041C37.2275 0.048645 36.3548 0.921401 36.3548 1.99797C36.3548 3.07453 37.2275 3.94729 38.3041 3.94729H43.4418L29.1283 18.2578C28.7443 18.6418 28.2417 18.8603 27.7448 18.8603C27.7343 18.8603 27.7237 18.8602 27.7132 18.86C27.2346 18.851 26.7455 18.6316 26.3716 18.2577L24.0798 15.9659C22.9579 14.8439 21.4684 14.1935 19.9931 14.1814C19.9787 14.1813 19.9645 14.1813 19.9502 14.1813C18.4233 14.1813 16.8985 14.8488 15.7589 16.0171L11.5816 20.2133C10.822 20.9763 10.8247 22.2105 11.5877 22.9701C11.968 23.3487 12.4654 23.5379 12.9629 23.5379C13.4632 23.5379 13.9635 23.3464 14.3444 22.9638L18.5293 18.7601C18.5351 18.7544 18.5407 18.7487 18.5463 18.7429C18.9534 18.3237 19.4838 18.075 19.9612 18.0798C20.4154 18.0835 20.9245 18.3238 21.3233 18.7225L23.6151 21.0143C24.7114 22.1107 26.1411 22.7299 27.6408 22.7579C29.2002 22.7872 30.7484 22.1515 31.8852 21.0145L46.1014 6.8012V11.6471C46.1014 12.7237 46.9741 13.5964 48.0507 13.5964C49.1272 13.5964 50 12.7237 50 11.6471V5.89661C50 2.67209 47.3766 0.048645 44.152 0.048645Z" fill="#42465F"/>
<path d="M5.75698 37.6706C4.67788 37.6669 3.80103 38.5408 3.80103 39.62V48.002C3.80103 49.0785 4.67378 49.9513 5.75034 49.9513H5.75044C6.827 49.9513 7.69976 49.0786 7.69976 48.002V39.62C7.69966 38.5459 6.83111 37.6742 5.75698 37.6706Z" fill="#42465F"/>
<path d="M44.0545 16.7154C42.978 16.7154 42.1052 17.5881 42.1052 18.6647V48.0021C42.1052 49.0785 42.978 49.9514 44.0545 49.9514H44.0546C45.1311 49.9514 46.004 49.0786 46.004 48.0021V18.6647C46.0039 17.588 45.1312 16.7154 44.0545 16.7154Z" fill="#42465F"/>
<path d="M28.6548 27.0468C27.5782 27.0468 26.7054 27.9195 26.7054 28.9961V48.002C26.7054 49.0784 27.5782 49.9513 28.6548 49.9513H28.6549C29.7313 49.9513 30.6042 49.0785 30.6042 48.002V28.9961C30.6041 27.9195 29.7314 27.0468 28.6548 27.0468Z" fill="#42465F"/>
<path d="M36.3477 23.343C35.2739 23.3469 34.4055 24.2186 34.4055 25.2923V48.002C34.4055 49.0785 35.2783 49.9514 36.3548 49.9514H36.3549C37.4314 49.9514 38.3043 49.0786 38.3043 48.002V25.2923C38.3041 24.2129 37.427 23.339 36.3477 23.343Z" fill="#42465F"/>
</svg>
