<svg width="51" height="49" viewBox="0 0 51 49" fill="none" xmlns="http://www.w3.org/2000/svg">
<path d="M10.2549 27.074H19.044V29.9031H10.2549V27.074Z" fill="#57F0D1"/>
<path d="M10.2549 32.7319H27.8331V35.5608H10.2549V32.7319Z" fill="#57F0D1"/>
<path d="M50.2217 28.2751L45.8265 22.6194C47.7231 20.181 48.756 17.2106 48.756 14.1375C48.756 6.34204 42.1847 0 34.1075 0C26.0303 0 19.459 6.34204 19.459 14.1375V14.3539C9.59328 14.1333 1.46582 21.8104 1.46582 31.3137C1.46582 35.0805 2.75879 38.7183 5.12901 41.679L0 48.2786H19.044C29.9703 48.2786 38.3009 38.7039 36.3393 28.275H50.2217V28.2751ZM22.3887 14.1374C22.3887 7.90177 27.6458 2.82873 34.1075 2.82873C40.5692 2.82873 45.8263 7.90177 45.8263 14.1374C45.8263 16.9077 44.777 19.5733 42.8719 21.6434L42.0765 22.5074L44.3605 25.4462H35.5378C33.4335 19.9541 28.4635 15.7924 22.3886 14.6582V14.1374H22.3887ZM19.044 45.4497H5.86134L8.8841 41.5603L8.08879 40.6963C5.70714 38.1088 4.39552 34.7767 4.39552 31.3137C4.39552 23.519 10.9668 17.1776 19.044 17.1776C27.1211 17.1776 33.6925 23.519 33.6925 31.3137C33.6925 39.1084 27.1211 45.4497 19.044 45.4497Z" fill="#57F0D1"/>
</svg>
