<svg width="50" height="50" viewBox="0 0 50 50" fill="none" xmlns="http://www.w3.org/2000/svg">
<path d="M43.0419 11.5757L32.4674 1.00127C31.8218 0.355566 30.9635 0 30.0504 0H9.375C7.49033 0 5.95703 1.5333 5.95703 3.41797V46.582C5.95703 48.4667 7.49033 50 9.375 50H40.625C42.5097 50 44.043 48.4667 44.043 46.582V13.9926C44.043 13.0798 43.6875 12.2215 43.0419 11.5757ZM39.0417 11.7188H32.8125C32.5433 11.7188 32.3242 11.4997 32.3242 11.2305V5.00137L39.0417 11.7188ZM40.625 47.0703H9.375C9.10576 47.0703 8.88672 46.8513 8.88672 46.582V3.41797C8.88672 3.14873 9.10576 2.92969 9.375 2.92969H29.3945V11.2305C29.3945 13.1151 30.9278 14.6484 32.8125 14.6484H41.1133V46.582C41.1133 46.8513 40.8942 47.0703 40.625 47.0703Z" fill="#36B4FF"/>
<path d="M26.5723 22.3633H35.9054C36.7144 22.3633 37.3702 21.7074 37.3702 20.8984C37.3702 20.0895 36.7144 19.4336 35.9054 19.4336H26.5723C25.7633 19.4336 25.1074 20.0895 25.1074 20.8984C25.1074 21.7074 25.7632 22.3633 26.5723 22.3633Z" fill="#36B4FF"/>
<path d="M26.5723 32.1289H35.9054C36.7144 32.1289 37.3702 31.473 37.3702 30.6641C37.3702 29.8551 36.7144 29.1992 35.9054 29.1992H26.5723C25.7633 29.1992 25.1074 29.8551 25.1074 30.6641C25.1074 31.473 25.7632 32.1289 26.5723 32.1289Z" fill="#36B4FF"/>
<path d="M35.9473 38.9648H26.5723C25.7633 38.9648 25.1074 39.6207 25.1074 40.4297C25.1074 41.2387 25.7633 41.8945 26.5723 41.8945H35.9473C36.7562 41.8945 37.4121 41.2387 37.4121 40.4297C37.4121 39.6207 36.7562 38.9648 35.9473 38.9648Z" fill="#36B4FF"/>
<path d="M19.2633 16.9099L15.8852 20.2879L15.0886 19.4913C14.5166 18.9192 13.5891 18.9192 13.017 19.4913C12.4449 20.0634 12.4449 20.9908 13.017 21.5629L14.8494 23.3953C15.1354 23.6813 15.5103 23.8244 15.8852 23.8244C16.26 23.8244 16.635 23.6814 16.9209 23.3953L21.3348 18.9814C21.9068 18.4094 21.9068 17.4819 21.3348 16.9099C20.7628 16.3378 19.8352 16.3378 19.2633 16.9099Z" fill="#36B4FF"/>
<path d="M19.2633 27.4213L15.8852 30.7994L15.0886 30.0028C14.5166 29.4309 13.5891 29.4308 13.017 30.0028C12.4449 30.5749 12.4449 31.5023 13.017 32.0744L14.8494 33.9067C15.1354 34.1928 15.5103 34.3357 15.8852 34.3357C16.26 34.3357 16.635 34.1928 16.9209 33.9066L21.3348 29.4928C21.9068 28.9207 21.9068 27.9933 21.3348 27.4212C20.7628 26.8492 19.8352 26.8492 19.2633 27.4213Z" fill="#36B4FF"/>
<path d="M19.2633 37.1869L15.8852 40.565L15.0886 39.7684C14.5166 39.1965 13.5891 39.1964 13.017 39.7684C12.4449 40.3405 12.4449 41.268 13.017 41.84L14.8494 43.6724C15.1354 43.9584 15.5103 44.1014 15.8852 44.1014C16.26 44.1014 16.635 43.9584 16.9209 43.6723L21.3348 39.2584C21.9068 38.6863 21.9068 37.7589 21.3348 37.1868C20.7628 36.6148 19.8352 36.6148 19.2633 37.1869Z" fill="#36B4FF"/>
</svg>
