<svg width="51" height="49" viewBox="0 0 51 49" fill="none" xmlns="http://www.w3.org/2000/svg">
<path d="M15.9718 34.9092L20.3984 30.5935C23.5365 33.1792 27.6039 34.743 32.0429 34.7431C41.9477 34.7429 50.0059 26.9619 50.006 17.3981C50.006 7.83426 41.9478 0.0534825 32.0429 0.0534825C26.4618 0.0534825 21.4671 2.5241 18.1699 6.39209L14.5766 2.92254H18.4899V0H9.4096L9.4095 8.76763H12.4363L12.4364 4.98907L16.4238 8.83933C12.8178 14.9504 13.3264 22.819 18.2679 28.5172L13.8315 32.8425L11.2376 30.3377L0 41.1887L7.33869 48.2747L18.5761 37.4239L15.9718 34.9092ZM18.6602 10.9988L21.599 13.8364C21.1869 14.9654 20.9719 16.1658 20.9719 17.3982C20.9719 23.2926 25.9383 28.0879 32.0428 28.0879C38.1612 28.0879 43.1138 23.3068 43.1136 17.3982C43.1138 11.4907 38.1619 6.7086 32.0428 6.7086C28.4088 6.7086 25.1373 8.38916 23.0744 11.128L20.3213 8.46953C23.0592 5.12575 27.2958 2.97603 32.0429 2.97603C40.2788 2.97603 46.9793 9.44576 46.9793 17.3981C46.9792 25.3505 40.2787 31.8204 32.0429 31.8205C23.807 31.8204 17.1066 25.3505 17.1066 17.3981C17.1066 15.1011 17.6666 12.9282 18.6602 10.9988ZM40.0045 18.5126L34.3362 13.0395L29.6955 17.5209L25.2534 13.2318C28.0324 9.02871 34.0981 8.39871 37.7309 11.9061C39.5959 13.7068 40.3533 16.1521 40.0045 18.5126ZM29.6955 21.6542L34.3364 17.1728L38.8527 21.5335C37.4014 23.752 34.8842 25.1653 32.0429 25.1653C27.6073 25.1653 23.9988 21.681 23.9988 17.3981C23.9988 17.0065 24.0288 16.6194 24.0874 16.239L29.6955 21.6542ZM7.33869 44.1417L4.28045 41.1888L11.2377 34.4712L14.2958 37.424L7.33869 44.1417Z" fill="#57F0D1"/>
<path d="M25.7395 39.511H49.9536V42.4333H25.7395V39.511Z" fill="#57F0D1"/>
<path d="M16.6592 45.356H34.8198V48.2783H16.6592V45.356Z" fill="#57F0D1"/>
</svg>
