<svg width="50" height="50" viewBox="0 0 50 50" fill="none" xmlns="http://www.w3.org/2000/svg">
<g clip-path="url(#clip0)">
<path d="M50 19.7034L38.0859 25.5628V17.6617H28.9378C30.0769 16.2718 30.7617 14.4959 30.7617 12.563C30.7617 8.12061 27.1475 4.50635 22.7051 4.50635C19.4838 4.50635 16.6992 6.40762 15.4111 9.14619C14.2405 8.08408 12.6877 7.43603 10.9863 7.43603C7.35156 7.43603 4.39453 10.3931 4.39453 14.0278C4.39453 15.37 4.79873 16.6191 5.49033 17.6617H0V45.4938H38.0859V37.5927L50 43.4521V19.7034ZM22.7051 7.43603C25.532 7.43603 27.832 9.73604 27.832 12.563C27.832 15.2087 25.8175 17.3924 23.242 17.6617H22.1682C19.5927 17.3924 17.5781 15.2086 17.5781 12.563C17.5781 9.73594 19.8781 7.43603 22.7051 7.43603ZM7.32422 14.0278C7.32422 12.0085 8.96699 10.3657 10.9863 10.3657C13.0057 10.3657 14.6484 12.0085 14.6484 14.0278C14.6484 15.8958 13.2424 17.4405 11.4331 17.6617H10.5396C8.73027 17.4405 7.32422 15.8957 7.32422 14.0278ZM35.1562 42.564H2.92969V39.0972H8.78906V36.1675H2.92969V26.9878H8.78906V24.0581H2.92969V20.5913H35.1562V42.564ZM47.0703 38.7464L38.0859 34.3278V28.8276L47.0703 24.4091V38.7464Z" fill="#57F0D1"/>
<path d="M13.1836 39.1596L28.1778 31.6641L13.1836 24.1653V39.1596ZM16.1133 28.9061L21.6269 31.6635L16.1133 34.4197V28.9061Z" fill="#57F0D1"/>
</g>
<defs>
<clipPath id="clip0">
<rect width="50" height="50" fill="white"/>
</clipPath>
</defs>
</svg>
