<svg width="50" height="50" viewBox="0 0 50 50" fill="none" xmlns="http://www.w3.org/2000/svg">
<g clip-path="url(#clip0)">
<path d="M3.85197 31.4097C4.53978 31.4097 5.09723 31.9671 5.09723 32.6549V43.7115C5.09966 45.7739 6.77055 47.4453 8.83301 47.4473H43.7737C45.8362 47.4453 47.5071 45.7739 47.5095 43.7115V11.2613C47.5071 9.19933 45.8362 7.52795 43.7737 7.52552H32.7172C32.0294 7.52552 31.4719 6.96807 31.4719 6.28026C31.4719 5.59294 32.0294 5.035 32.7172 5.035H43.7737C47.2108 5.0389 49.9961 7.82419 50 11.2613V43.712C49.9961 47.1491 47.2108 49.9344 43.7737 49.9383H8.83301C5.3959 49.9344 2.6106 47.1491 2.60671 43.712V32.6549C2.60671 31.9671 3.16416 31.4097 3.85197 31.4097Z" fill="#FFA33D"/>
<path d="M3.09991 1.83088C5.28836 -0.357567 8.83638 -0.357567 11.0248 1.83088L33.241 24.0471C33.3933 24.1993 33.5032 24.3881 33.5606 24.5953L36.4821 35.1425C36.6023 35.575 36.4802 36.038 36.163 36.3557C35.8454 36.6728 35.3823 36.7949 34.9499 36.6753L24.4026 33.7533C24.1954 33.6959 24.0067 33.586 23.8544 33.4337L1.63868 11.217C-0.54636 9.02711 -0.54636 5.48202 1.63868 3.29211L3.09991 1.83088ZM30.5277 24.8565L12.3455 6.67377L6.48157 12.5377L24.6643 30.7204L30.5277 24.8565ZM31.6991 27.2069L27.0143 31.8922L33.4945 33.6876L31.6991 27.2069ZM3.39956 9.45614L4.72021 10.7768L10.5846 4.91241L9.26346 3.59175C8.04787 2.37617 6.07686 2.37617 4.86127 3.59175L3.39956 5.05299C2.18591 6.27003 2.18591 8.23958 3.39956 9.45614Z" fill="#FFA33D"/>
</g>
<defs>
<clipPath id="clip0">
<rect width="50" height="50" fill="white" transform="matrix(-1 0 0 1 50 0)"/>
</clipPath>
</defs>
</svg>
