<svg width="50" height="50" viewBox="0 0 50 50" fill="none" xmlns="http://www.w3.org/2000/svg">
<path d="M39.8988 24.0002C38.9806 23.7558 38.3195 23.1562 37.987 22.2662C37.8434 21.8814 37.6837 21.4965 37.5126 21.1222C37.1171 20.2571 37.1603 19.3647 37.6374 18.5418C38.6651 16.7693 38.3726 14.5208 36.9259 13.0743C35.4792 11.6275 33.2308 11.3349 31.4583 12.3627C30.6353 12.8399 29.7431 12.8831 28.878 12.4877C28.5042 12.3168 28.1192 12.1572 27.7341 12.0133C26.8439 11.681 26.2443 11.0199 25.9999 10.1014C25.4731 8.12157 23.6765 6.73877 21.6307 6.73877C19.5849 6.73877 17.7881 8.12157 17.2615 10.1014C17.0172 11.0198 16.4175 11.6808 15.5274 12.0132C15.1426 12.157 14.7576 12.3165 14.3834 12.4876C13.5184 12.8831 12.6262 12.8399 11.8031 12.3627C10.0306 11.3348 7.78217 11.6275 6.3355 13.0743C4.57301 14.8367 4.57301 17.7044 6.3355 19.4668L6.51186 19.6432C5.74488 20.9667 5.16119 22.3744 4.76774 23.8491H4.52028C2.02782 23.8491 0 25.8768 0 28.3694C0 30.4151 1.3828 32.2118 3.36257 32.7386C4.28083 32.9829 4.94195 33.5826 5.27437 34.4726C5.41812 34.8574 5.57769 35.2424 5.74878 35.6167C6.14429 36.4817 6.10112 37.374 5.62398 38.1969C4.59625 39.9695 4.88883 42.2178 6.3356 43.6645C7.78226 45.1111 10.0308 45.4038 11.8032 44.376C12.6263 43.8987 13.5184 43.8556 14.3836 44.2511C14.7577 44.4221 15.1426 44.5816 15.5275 44.7254C16.4176 45.0577 17.0172 45.7188 17.2616 46.6372C17.7883 48.6171 19.585 50 21.6308 50C23.6766 50 25.4733 48.6172 26 46.6373C26.2443 45.7189 26.844 45.0578 27.7343 44.7254C28.12 44.5812 28.505 44.4217 28.878 44.2511C29.743 43.8558 30.6353 43.8988 31.4583 44.376C33.2309 45.4036 35.4791 45.1111 36.9258 43.6645C38.3726 42.2179 38.6652 39.9695 37.6374 38.1969C37.1603 37.3739 37.1171 36.4816 37.5126 35.6166C37.6837 35.2423 37.8434 34.8574 37.987 34.4724C38.3194 33.5824 38.9805 32.9828 39.8987 32.7385C41.8786 32.2117 43.2614 30.4151 43.2614 28.3695C43.2614 26.3236 41.8786 24.5269 39.8988 24.0002V24.0002ZM39.1455 29.9074C37.2977 30.3992 35.9116 31.6564 35.2426 33.4475C35.1232 33.7675 34.9905 34.0875 34.8483 34.3985C34.0524 36.1394 34.1428 38.0102 35.103 39.6664C35.4656 40.2917 35.3634 41.084 34.8544 41.593C34.3455 42.102 33.5533 42.2041 32.9279 41.8416C31.2718 40.8814 29.401 40.7908 27.6599 41.5868C27.3498 41.7286 27.0299 41.8613 26.7093 41.9811C24.9179 42.65 23.6606 44.0361 23.1689 45.8843C22.983 46.5827 22.3506 47.0705 21.6308 47.0705C20.9111 47.0705 20.2786 46.5827 20.0927 45.8842C19.6009 44.0361 18.3436 42.6499 16.5523 41.9811C16.2324 41.8615 15.9125 41.7289 15.6015 41.5868C14.8166 41.228 14.0054 41.0493 13.1992 41.0493C12.2173 41.0493 11.2431 41.3144 10.3336 41.8417C9.70823 42.2042 8.91604 42.1021 8.40697 41.593C7.89799 41.0841 7.79574 40.2919 8.15833 39.6665C9.11858 38.0104 9.20901 36.1395 8.41322 34.3987C8.27093 34.0875 8.13832 33.7676 8.01879 33.4477C7.34985 31.6565 5.96382 30.3992 4.11579 29.9074C3.41745 29.7216 2.92966 29.0891 2.92966 28.3694C2.92966 27.4923 3.64323 26.7788 4.52028 26.7788H5.93325C6.63491 26.7788 7.23803 26.2812 7.37143 25.5922C7.74271 23.674 8.48773 21.8772 9.58586 20.2517C9.97854 19.6703 9.90393 18.8921 9.40784 18.3959L8.40716 17.3952C7.78695 16.775 7.78695 15.7659 8.40716 15.1457C8.91614 14.6369 9.70832 14.5345 10.3337 14.8971C11.9898 15.8574 13.8607 15.948 15.6014 15.152C15.9125 15.0098 16.2324 14.8772 16.5523 14.7577C18.3436 14.0888 19.6009 12.7027 20.0926 10.8547C20.2785 10.1562 20.9109 9.66843 21.6307 9.66843C22.3504 9.66843 22.9829 10.1562 23.1688 10.8547C23.6606 12.7027 24.9179 14.0889 26.7092 14.7577C27.0294 14.8773 27.3492 15.01 27.6599 15.152C29.4008 15.9478 31.2716 15.8573 32.9277 14.8971C33.5529 14.5344 34.3452 14.6368 34.8542 15.1458C35.3632 15.6547 35.4654 16.447 35.1029 17.0723C34.1426 18.7284 34.0522 20.5993 34.8481 22.3402C34.9904 22.6514 35.1231 22.9714 35.2425 23.2912C35.9115 25.0824 37.2976 26.3396 39.1454 26.8313C39.8438 27.0171 40.3316 27.6496 40.3316 28.3694C40.3317 29.0891 39.8439 29.7216 39.1455 29.9074V29.9074Z" fill="#42465F"/>
<path d="M48.8419 8.40748L48.3277 8.1443C48.4185 7.70622 48.4545 7.25974 48.4352 6.81286L48.9848 6.63542C49.7547 6.38689 50.1773 5.56131 49.9288 4.79149C49.6803 4.02158 48.8544 3.59912 48.0849 3.84746L47.5352 4.0249C47.2896 3.65097 46.9993 3.30986 46.6695 3.00752L46.9328 2.49337C47.3015 1.77325 47.0165 0.890644 46.2964 0.521897C45.5763 0.15315 44.6937 0.438109 44.3249 1.15832L44.0609 1.67413C43.619 1.58361 43.1728 1.54933 42.7313 1.56847L42.5528 1.01545C42.3043 0.245532 41.4787 -0.177121 40.7088 0.0714124C39.9389 0.319946 39.5164 1.14553 39.7648 1.91534L39.9433 2.46827C39.574 2.71084 39.232 2.99961 38.9264 3.33145L38.4106 3.06739C37.6905 2.69883 36.8079 2.9836 36.4391 3.70381C36.0705 4.42392 36.3555 5.30653 37.0756 5.67528L37.5897 5.93846C37.499 6.37654 37.4631 6.82292 37.4824 7.26989L36.9327 7.44733C36.1629 7.69577 35.7402 8.52144 35.9887 9.29126C36.189 9.91167 36.7639 10.3065 37.3823 10.3065C37.5314 10.3065 37.6831 10.2835 37.8326 10.2353L38.3822 10.0579C38.6278 10.4318 38.918 10.7729 39.2477 11.0752L38.9844 11.5895C38.6158 12.3096 38.9008 13.1922 39.6209 13.5609C39.8345 13.6703 40.0625 13.7221 40.2872 13.7221C40.8195 13.7221 41.3331 13.4309 41.5922 12.9244L41.8557 12.4097C42.2171 12.4845 42.584 12.5244 42.9525 12.5244C43.0307 12.5244 43.1089 12.5224 43.1871 12.519L43.3642 13.0674C43.5645 13.6878 44.1394 14.0826 44.7578 14.0826C44.907 14.0826 45.0586 14.0597 45.2081 14.0114C45.978 13.7629 46.4006 12.9373 46.1522 12.1674L45.9747 11.6178C46.3486 11.3722 46.6898 11.082 46.9921 10.7523L47.5063 11.0156C47.72 11.125 47.9479 11.1768 48.1727 11.1768C48.705 11.1768 49.2185 10.8856 49.4777 10.3791C49.847 9.65874 49.562 8.77613 48.8419 8.40748V8.40748ZM45.2292 8.20367C44.5883 9.45552 43.0486 9.95278 41.7965 9.31167C40.5447 8.67076 40.0476 7.13083 40.6885 5.87898C41.1395 4.99813 42.0355 4.49101 42.9631 4.49101C43.3538 4.49101 43.7502 4.58105 44.1213 4.77099C45.3732 5.4118 45.8701 6.95173 45.2292 8.20367Z" fill="#42465F"/>
<path d="M21.6307 16.9234C15.3194 16.9234 10.1848 22.058 10.1848 28.3693C10.1848 34.6806 15.3194 39.8152 21.6307 39.8152C27.942 39.8152 33.0766 34.6806 33.0766 28.3693C33.0766 22.058 27.942 16.9234 21.6307 16.9234V16.9234ZM21.6307 36.8855C20.206 36.8855 18.8622 36.5334 17.6809 35.9123C18.5222 34.5518 20.0058 33.7044 21.6307 33.7044C23.2458 33.7044 24.7403 34.5733 25.5781 35.9137C24.3973 36.5339 23.0543 36.8855 21.6307 36.8855V36.8855ZM19.3271 28.3693C19.3271 27.0991 20.3605 26.0658 21.6307 26.0658C22.9009 26.0658 23.9342 27.0992 23.9342 28.3693C23.9342 29.6394 22.9008 30.6729 21.6307 30.6729C20.3606 30.6729 19.3271 29.6395 19.3271 28.3693ZM27.9045 34.1218C27.4299 33.4209 26.8403 32.7958 26.1604 32.2863C25.9548 32.1322 25.7426 31.9909 25.5257 31.8596C26.3571 30.9329 26.8639 29.7092 26.8639 28.3692C26.8639 25.4836 24.5162 23.136 21.6307 23.136C18.7452 23.136 16.3975 25.4837 16.3975 28.3692C16.3975 29.7078 16.9032 30.93 17.7329 31.8564C16.7937 32.4214 15.9786 33.1897 15.3531 34.1176C13.9638 32.6016 13.1146 30.5828 13.1146 28.3691C13.1146 23.6733 16.935 19.8529 21.6308 19.8529C26.3267 19.8529 30.1471 23.6733 30.1471 28.3691C30.147 30.5849 29.2962 32.6053 27.9045 34.1218V34.1218Z" fill="#42465F"/>
</svg>
