<svg width="50" height="50" viewBox="0 0 50 50" fill="none" xmlns="http://www.w3.org/2000/svg">
<path d="M31.6695 16.1133L38.9937 0H27.0894L25.0749 4.37354L23.1172 0H11.0063L18.3306 16.1133H0V50H50V16.1133H31.6695ZM28.9653 2.92969H34.4438L28.4514 16.1133H22.893L28.9653 2.92969ZM21.2188 2.92969L23.447 7.90771L20.6143 14.0576L15.5562 2.92969H21.2188ZM47.0703 47.0703H2.92969V19.043H47.0703V47.0703Z" fill="#57F0D1"/>
<path d="M29.0039 23.9258H43.1641V26.8555H29.0039V23.9258Z" fill="#57F0D1"/>
<path d="M29.0039 31.7871H43.1641V34.7168H29.0039V31.7871Z" fill="#57F0D1"/>
<path d="M29.0039 39.6484H43.1641V42.5781H29.0039V39.6484Z" fill="#57F0D1"/>
<path d="M18.7373 33.0835C19.933 32.1436 20.7031 30.6856 20.7031 29.0503C20.7031 26.2246 18.4021 23.9258 15.5739 23.9258C12.7481 23.9258 10.4492 26.2246 10.4492 29.0504C10.4492 30.6861 11.219 32.1443 12.4142 33.0843C8.64355 34.0236 6.05469 36.7402 6.05469 40.8408V42.5781H25.0977V40.8408C25.0977 36.801 22.5733 34.0379 18.7373 33.0835ZM15.5739 26.8555C16.7867 26.8555 17.7734 27.84 17.7734 29.0504C17.7734 30.2633 16.7867 31.25 15.5739 31.25C14.3636 31.25 13.3789 30.2633 13.3789 29.0504C13.3789 27.84 14.3636 26.8555 15.5739 26.8555ZM9.0999 39.6484C9.86094 35.9554 14.1685 35.6445 15.5762 35.6445C16.9839 35.6445 21.2914 35.9554 22.0524 39.6484H9.0999Z" fill="#57F0D1"/>
</svg>
