<svg width="50" height="50" viewBox="0 0 50 50" fill="none" xmlns="http://www.w3.org/2000/svg">
<path d="M47.7127 2.28904C44.6586 -0.755975 39.7167 -0.755975 36.6626 2.28904L20.3126 18.639V27.4781L11.8533 35.9375H31.2501V32.8125H19.397L22.522 29.6875H31.3611L47.7127 13.3359C50.7625 10.2851 50.7625 5.33983 47.7127 2.28904ZM23.4376 19.9328L29.6876 13.6828V18.1031L23.4376 24.3531V19.9328V19.9328ZM30.0673 26.5625H25.647L27.2095 25H31.6298L30.0673 26.5625ZM34.7548 21.875H30.3345L36.5845 15.625H41.0048L34.7548 21.875ZM45.5033 11.1265L44.1298 12.5H39.7095L43.2923 8.91717L41.083 6.70779L32.8126 14.9781V10.5578L38.872 4.49842C40.7023 2.66727 43.6706 2.66658 45.5017 4.49686C47.3329 6.32713 47.3335 9.29539 45.5033 11.1265Z" fill="#42465F"/>
<path d="M40.626 43.75C40.626 45.4759 39.2269 46.875 37.501 46.875C35.7751 46.875 34.376 45.4759 34.376 43.75V39.0625H9.37598V3.125H25.001V0H6.25098V39.0625H0.000976562V43.75C0.000976562 47.2018 2.79922 50 6.25098 50H37.501C40.9527 50 43.751 47.2018 43.751 43.75V25H40.626V43.75ZM6.25098 46.875C4.5251 46.875 3.12598 45.4759 3.12598 43.75V42.1875H31.251V43.75C31.2493 44.8476 31.5389 45.9259 32.09 46.875H6.25098Z" fill="#42465F"/>
<path d="M37.5001 32.8125H34.3751V35.9375H37.5001V32.8125Z" fill="#42465F"/>
<path d="M25.0001 6.25H12.5001V9.375H25.0001V6.25Z" fill="#42465F"/>
<path d="M20.3126 12.5H12.5001V15.625H20.3126V12.5Z" fill="#42465F"/>
<path d="M17.1876 18.75H12.5001V21.875H17.1876V18.75Z" fill="#42465F"/>
<path d="M17.1876 25H12.5001V28.125H17.1876V25Z" fill="#42465F"/>
<path d="M31.2501 0H28.1251V3.125H31.2501V0Z" fill="#42465F"/>
</svg>
