<svg width="50" height="50" viewBox="0 0 50 50" fill="none" xmlns="http://www.w3.org/2000/svg">
<g clip-path="url(#clip0)">
<path d="M12.7708 27.5381L11.0763 27.2248C10.9325 27.1983 10.7981 27.0878 10.7419 26.9537C12.0515 26.1143 12.922 24.6469 12.922 22.979V20.4887C12.922 17.8867 10.8052 15.7699 8.20321 15.7699C5.60126 15.7699 3.48437 17.8868 3.48437 20.4887V22.979C3.48437 24.6465 4.35448 26.1137 5.66376 26.9532C5.63778 27.0153 5.59882 27.0708 5.54921 27.1155C5.51278 27.1365 5.47724 27.1598 5.44296 27.1859C5.40722 27.2032 5.36972 27.2175 5.32919 27.225L3.63554 27.5381C1.5289 27.9275 0 29.7648 0 31.9071V33.2538C0 33.7931 0.437206 34.2304 0.976561 34.2304H15.4297C15.969 34.2304 16.4062 33.7931 16.4062 33.2538V31.9071C16.4062 29.7648 14.8772 27.9275 12.7708 27.5381ZM8.20311 17.7228C9.4161 17.7228 10.4492 18.5077 10.8213 19.5963L9.9367 19.0766C9.52528 18.835 8.99979 18.9258 8.69354 19.2913C8.09627 20.004 7.2204 20.4128 6.29061 20.4128H5.43847C5.4787 18.9228 6.70341 17.7228 8.20311 17.7228ZM5.43739 22.9788V22.3659H6.29052C7.51649 22.3659 8.68455 21.9282 9.59949 21.1437L10.9688 21.9483V22.9788C10.9688 24.5039 9.72811 25.7446 8.20311 25.7446C6.67811 25.7446 5.43739 24.5039 5.43739 22.9788ZM9.08758 28.0024L8.2034 29.1057L7.31825 28.0016C7.38544 27.8879 7.44296 27.7684 7.49081 27.6441C7.72313 27.6794 7.96102 27.6979 8.20311 27.6979C8.44491 27.6979 8.68241 27.6794 8.91453 27.6442C8.96258 27.7687 9.0203 27.8885 9.08758 28.0024ZM1.95312 32.2772V31.9071C1.95312 30.7066 2.80996 29.6768 3.99042 29.4585L5.68417 29.1454C5.69784 29.1429 5.71083 29.1389 5.7244 29.1361L7.44159 31.278C7.62694 31.5093 7.90731 31.6437 8.2036 31.6437C8.49989 31.6437 8.78026 31.5091 8.96551 31.2779L10.6818 29.1362C10.6951 29.139 10.7078 29.1429 10.7212 29.1453L12.4156 29.4586C13.5962 29.6769 14.453 30.7066 14.453 31.9072V32.2772H1.95312Z" fill="#42465F"/>
<path d="M22.473 11.1835C21.1637 10.344 22.447 11.2456 22.473 11.1835V11.1835Z" fill="#42465F"/>
<path d="M29.58 11.7683L27.8856 11.455C27.7416 11.4284 27.6074 11.3181 27.5511 11.184C28.8608 10.3445 29.7313 8.87712 29.7313 7.20935V4.71893C29.7313 2.11698 27.6144 9.15527e-05 25.0124 9.15527e-05C22.4105 9.15527e-05 20.2936 2.11698 20.2936 4.71893V4.88446V7.20935C20.2936 8.87683 21.1637 10.344 22.473 11.1836C22.4166 11.3184 22.2827 11.4284 22.1383 11.4551L20.4447 11.7683C18.3382 12.1578 16.8093 13.9954 16.8093 16.1376V17.4842C16.8093 18.0236 17.2465 18.4608 17.7859 18.4608H32.239C32.7784 18.4608 33.2156 18.0236 33.2156 17.4842V16.1376C33.2156 13.9954 31.6867 12.1578 29.58 11.7683ZM25.0124 1.95321C26.2254 1.95321 27.2585 2.73807 27.6306 3.82674L26.746 3.30702C26.3347 3.06542 25.8091 3.15614 25.5029 3.52176C24.9056 4.23446 24.0297 4.64325 23.0999 4.64325H22.2478C22.288 3.15311 23.5127 1.95321 25.0124 1.95321ZM22.2467 7.20935V6.59637H23.0998C24.3258 6.59637 25.4939 6.15858 26.4088 5.3741L27.7782 6.17869V7.20935C27.7782 8.73425 26.5374 9.97507 25.0124 9.97507C23.4874 9.97517 22.2467 8.73445 22.2467 7.20935ZM25.8969 12.2328L25.0127 13.3361L24.1276 12.232C24.1948 12.1183 24.2523 11.9987 24.3002 11.8745C24.5326 11.9098 24.7705 11.9283 25.0124 11.9283C25.2542 11.9283 25.4917 11.9098 25.7239 11.8746C25.7719 11.9991 25.8296 12.1189 25.8969 12.2328ZM31.2624 16.5076H18.7624V16.1375C18.7624 14.9369 19.6193 13.9071 20.7999 13.6888L22.4934 13.3756C22.5071 13.3731 22.5202 13.3691 22.5337 13.3664L24.2509 15.5084C24.4363 15.7396 24.7166 15.8742 25.0129 15.8741C25.3092 15.874 25.5896 15.7395 25.7749 15.5082L27.4912 13.3666C27.5044 13.3692 27.5172 13.3732 27.5306 13.3756L29.225 13.6889C30.4056 13.9071 31.2624 14.937 31.2624 16.1375V16.5076Z" fill="#42465F"/>
<path d="M29.58 43.3078L27.8856 42.9945C27.7417 42.9679 27.6074 42.8576 27.5511 42.7234C28.8608 41.884 29.7313 40.4166 29.7313 38.7488V36.2584C29.7313 33.6563 27.6144 31.5395 25.0124 31.5395C22.4105 31.5395 20.2936 33.6564 20.2936 36.2584V38.7488C20.2936 40.4163 21.1637 41.8835 22.473 42.723C22.4165 42.858 22.2828 42.9678 22.1383 42.9946L20.4447 43.3078C18.3382 43.6972 16.8093 45.5348 16.8093 47.6769V49.0235C16.8093 49.5628 17.2465 50.0001 17.7859 50.0001H32.239C32.7784 50.0001 33.2156 49.5628 33.2156 49.0235V47.6769C33.2155 45.5346 31.6865 43.6971 29.58 43.3078ZM25.0123 33.4925C26.2253 33.4925 27.2584 34.2774 27.6305 35.3661L26.7459 34.8465C26.3346 34.6047 25.809 34.6957 25.5028 35.0612C24.9055 35.7739 24.0296 36.1826 23.0998 36.1826H22.2477C22.2879 34.6923 23.5126 33.4925 25.0123 33.4925ZM22.2466 38.7487V38.1357H23.0997C24.3257 38.1357 25.4938 37.698 26.4086 36.9134L27.7781 37.718V38.7487C27.7781 40.2737 26.5373 41.5144 25.0123 41.5144C23.4873 41.5144 22.2466 40.2736 22.2466 38.7487ZM25.8968 43.7721L25.0126 44.8755L24.1275 43.7714C24.1947 43.6577 24.2522 43.5381 24.3001 43.4138C24.5325 43.4492 24.7704 43.4676 25.0123 43.4676C25.2541 43.4676 25.4916 43.4492 25.7238 43.4139C25.7718 43.5384 25.8295 43.6583 25.8968 43.7721ZM31.2623 48.0469H18.7624V47.6768C18.7624 46.4763 19.6192 45.4464 20.7998 45.2282L22.4933 44.915C22.507 44.9125 22.52 44.9085 22.5336 44.9057L24.2509 47.0477C24.4363 47.279 24.7166 47.4134 25.0129 47.4134C25.3092 47.4134 25.5896 47.2788 25.7748 47.0476L27.4912 44.9059C27.5044 44.9087 27.5171 44.9126 27.5305 44.915L29.2249 45.2283C30.4055 45.4465 31.2623 46.4763 31.2623 47.6769V48.0469V48.0469Z" fill="#42465F"/>
<path d="M46.3645 27.538L44.67 27.2247C44.5262 27.1982 44.3918 27.0877 44.3355 26.9536C45.6452 26.1142 46.5157 24.6468 46.5157 22.9789V20.4886C46.5157 17.8866 44.3988 15.7698 41.7969 15.7698C39.1949 15.7698 37.078 17.8867 37.078 20.4886V22.9789C37.078 24.6464 37.9481 26.1136 39.2574 26.9532C39.2011 27.088 39.0672 27.1981 38.9228 27.2248L37.2291 27.5379C35.1227 27.9274 33.5938 29.765 33.5938 31.907V33.2537C33.5938 33.793 34.031 34.2303 34.5703 34.2303H49.0234C49.5628 34.2303 50 33.793 50 33.2537V31.9071C49.9999 29.7649 48.4709 27.9275 46.3645 27.538ZM41.7968 17.7228C43.0098 17.7228 44.0429 18.5077 44.4149 19.5963L43.5304 19.0766C43.119 18.835 42.5935 18.9258 42.2872 19.2914C41.6899 20.004 40.8141 20.4128 39.8843 20.4128H39.0321C39.0724 18.9228 40.2971 17.7228 41.7968 17.7228ZM39.0311 22.9788V22.366H39.8842C41.1102 22.366 42.2782 21.9282 43.1932 21.1437L44.5625 21.9483V22.9788C44.5625 24.5039 43.3218 25.7447 41.7968 25.7447C40.2718 25.7447 39.0311 24.5039 39.0311 22.9788ZM42.6812 28.0024L41.7971 29.1057L40.9119 28.0016C40.9791 27.8879 41.0366 27.7684 41.0845 27.6441C41.3168 27.6794 41.5547 27.6979 41.7968 27.6979C42.0386 27.6979 42.2761 27.6794 42.5082 27.6442C42.5562 27.7687 42.614 27.8885 42.6812 28.0024ZM35.5468 32.2773V31.9071C35.5468 30.7067 36.4036 29.6768 37.5841 29.4585L39.2778 29.1454C39.2915 29.1429 39.3045 29.1389 39.3181 29.1362L41.0353 31.278C41.2206 31.5093 41.501 31.6438 41.7973 31.6438C42.0936 31.6438 42.3739 31.5091 42.5592 31.2779L44.2755 29.1363C44.2888 29.139 44.3015 29.1429 44.3148 29.1453L46.0093 29.4586C47.1898 29.6769 48.0467 30.7067 48.0467 31.9072V32.2773H35.5468Z" fill="#42465F"/>
<path d="M40.4645 35.6499C40.0371 35.321 39.4239 35.401 39.0951 35.8285L39.0725 35.8578C38.7413 36.2835 38.8181 36.8972 39.2437 37.2282C39.422 37.3669 39.633 37.4339 39.8426 37.4339C40.1336 37.4339 40.4216 37.3044 40.614 37.057L40.6432 37.0193C40.972 36.5918 40.892 35.9787 40.4645 35.6499Z" fill="#42465F"/>
<path d="M38.2489 38.303C37.8886 37.9019 37.2711 37.8686 36.8698 38.229C35.6021 39.3674 34.1825 40.3156 32.6507 41.0473C32.1641 41.2797 31.9579 41.8627 32.1905 42.3494C32.358 42.7003 32.7078 42.9052 33.0723 42.9052C33.2134 42.9052 33.3568 42.8745 33.4925 42.8096C35.1927 41.9976 36.768 40.9452 38.1747 39.6821C38.576 39.3219 38.6092 38.7043 38.2489 38.303Z" fill="#42465F"/>
<path d="M17.2951 41.0212C14.6523 39.7479 12.3412 37.8167 10.6115 35.4361C10.2945 34.9999 9.68384 34.903 9.24742 35.2201C8.81109 35.5371 8.71441 36.1478 9.0315 36.5841C10.9503 39.2251 13.5148 41.3678 16.4473 42.7808C16.5839 42.8466 16.7284 42.8778 16.8704 42.8778C17.2338 42.8778 17.5827 42.6742 17.7509 42.325C17.985 41.8389 17.7809 41.2554 17.2951 41.0212Z" fill="#42465F"/>
<path d="M10.9899 12.5026C10.6169 12.2021 9.99807 12.1792 9.60774 12.6612C9.2175 13.1431 9.36867 13.7437 9.74035 14.046C9.91096 14.1848 10.1335 14.2651 10.3625 14.2651C10.6323 14.2651 10.9109 14.1533 11.1232 13.8935C11.125 13.8913 11.1269 13.889 11.1286 13.8868C11.5167 13.403 11.3627 12.8031 10.9899 12.5026Z" fill="#42465F"/>
<path d="M18.4191 7.41001C18.2039 6.91548 17.6282 6.68892 17.134 6.90435C15.4778 7.62515 13.9263 8.57251 12.5228 9.71977C12.1053 10.0611 12.0434 10.6763 12.3848 11.0939C12.578 11.3302 12.8587 11.4525 13.1416 11.4525C13.359 11.4525 13.5776 11.3802 13.7591 11.232C15.0239 10.1981 16.4217 9.34458 17.9134 8.69517C18.408 8.47993 18.6343 7.90454 18.4191 7.41001Z" fill="#42465F"/>
<path d="M41.1404 13.6562C38.8841 10.4515 35.7673 8.01173 32.127 6.6006C31.624 6.40567 31.0585 6.65538 30.8636 7.15821C30.6685 7.66114 30.9182 8.22686 31.4211 8.42178C34.701 9.69307 37.5095 11.892 39.5433 14.7807C39.7335 15.0508 40.0357 15.1951 40.3427 15.1951C40.537 15.1951 40.7332 15.1373 40.9041 15.017C41.3451 14.7065 41.4508 14.0973 41.1404 13.6562Z" fill="#42465F"/>
</g>
<defs>
<clipPath id="clip0">
<rect width="50" height="50" fill="white"/>
</clipPath>
</defs>
</svg>
