<svg width="102" height="28" viewBox="0 0 102 28" fill="none" xmlns="http://www.w3.org/2000/svg">
<path opacity="0.7" fill-rule="evenodd" clip-rule="evenodd" d="M25.585 8.41994C26.0697 8.17615 26.548 8.03315 27.3441 8.02512L27.3518 8.02512C28.2586 8.03915 28.7565 8.21386 29.3183 8.54148C29.8704 8.87387 30.4883 9.45312 31.156 10.349C31.9973 11.4515 32.835 12.9963 33.7778 14.735L33.7779 14.7351C34.353 15.7956 34.9671 16.9283 35.6451 18.0767C36.8553 20.0943 38.3078 22.2002 40.3831 23.9895C41.5659 25.0077 42.959 25.9062 44.5544 26.5531C46.3683 27.2929 48.4257 27.6926 50.6473 27.6924L50.6757 27.6925C53.2373 27.6974 55.5854 27.1646 57.59 26.2034C59.5995 25.2449 61.2318 23.8968 62.5479 22.4474C64.7025 20.0532 66.1256 17.4088 67.3797 15.0785C67.653 14.5706 67.9182 14.0777 68.1813 13.6055C69.1443 11.8419 70.0607 10.3798 70.9066 9.48711C71.3897 8.97046 71.8263 8.63822 72.2452 8.41994C72.7299 8.17615 73.2098 8.03315 74.0042 8.02512C74.0063 8.02512 74.0084 8.02512 74.0105 8.02512C74.9172 8.03917 75.4151 8.21516 75.9769 8.54148C76.529 8.87564 77.1469 9.45504 77.8145 10.349C78.6558 11.4524 79.4933 12.9971 80.4359 14.7356C81.0111 15.7965 81.6255 16.9296 82.3037 18.0786C83.5139 20.0961 84.9663 22.2022 87.04 23.9895C88.2229 25.0077 89.6144 25.9062 91.2097 26.5531C93.0314 27.2961 95.0987 27.696 97.3296 27.6923H97.3312C97.4451 27.6923 97.673 27.6891 97.9668 27.6427C100.154 27.2929 101.645 25.2353 101.296 23.0459C100.978 21.0709 99.2701 19.6649 97.3312 19.6678V19.6674H97.3296C95.8289 19.6629 94.7776 19.3865 93.8708 18.9595C92.9704 18.5282 92.1824 17.9099 91.3959 17.0479C89.9725 15.5109 88.7014 13.1561 87.3201 10.5971C87.1672 10.3139 87.013 10.0282 86.8571 9.74089C85.7946 7.82438 84.6422 5.81991 82.965 4.01125C82.0052 2.98245 80.8512 2.02059 79.4581 1.29834C77.8707 0.465835 75.9832 -0.0063553 74.0059 6.46219e-05C73.9998 6.46219e-05 73.9937 7.81522e-05 73.9876 0.000105242C71.7211 -0.00939729 69.5783 0.625186 67.862 1.68414C66.1302 2.7399 64.8269 4.12661 63.766 5.54365C62.4053 7.38655 61.3626 9.32819 60.3876 11.1436C59.8561 12.1332 59.3448 13.0854 58.8131 13.9636C57.8244 15.6281 56.8084 16.9891 55.7379 17.9021C55.1232 18.4286 54.4956 18.8236 53.775 19.1189C52.9544 19.4494 51.9925 19.662 50.6966 19.6675L50.6758 19.6674C49.1736 19.6629 48.1207 19.3865 47.2155 18.9595C46.3135 18.5282 45.5238 17.9099 44.7374 17.0479C43.3162 15.5133 42.0468 13.1624 40.668 10.6088L40.667 10.607C40.5123 10.3206 40.3563 10.0316 40.1985 9.74089C39.136 7.82309 37.9836 5.81814 36.3048 4.00932C35.3466 2.98053 34.1926 2.01946 32.7979 1.29722C31.2089 0.463906 29.3215 -0.00635507 27.3441 6.48901e-05L27.3267 0.000101905C25.0605 -0.00924735 22.918 0.625311 21.2002 1.68414C19.4685 2.7399 18.1668 4.12661 17.1043 5.54365C15.745 7.38693 14.7021 9.32837 13.727 11.1436L13.727 11.1436L13.727 11.1436L13.727 11.1437L13.727 11.1437C13.195 12.134 12.6833 13.0866 12.1513 13.9653C11.1627 15.6292 10.1467 16.9904 9.07617 17.9057C8.45985 18.4317 7.83391 18.8267 7.11327 19.1201C6.2867 19.4542 5.31893 19.6675 4.01247 19.6712C1.79598 19.6712 0 21.4669 0 23.6837C0 25.9 1.79598 27.6962 4.01247 27.6962C6.57403 27.7005 8.92206 27.1676 10.9267 26.2046C12.9361 25.2479 14.5701 23.9 15.8862 22.4504C18.0368 20.0606 19.4587 17.4203 20.712 15.093L20.7121 15.0928L20.7123 15.0924C20.9881 14.5802 21.2558 14.0832 21.5212 13.6074C22.4826 11.8432 23.4007 10.3798 24.2465 9.48711C24.7296 8.97046 25.1645 8.63822 25.585 8.41994Z" fill="#FFA33D"/>
</svg>
