<svg width="50" height="14" viewBox="0 0 50 14" fill="none" xmlns="http://www.w3.org/2000/svg">
<path opacity="0.6" fill-rule="evenodd" clip-rule="evenodd" d="M12.4096 4.08396C12.6443 3.96589 12.876 3.89656 13.261 3.89248L13.2628 3.89248C13.705 3.89886 13.9471 3.98363 14.2204 4.14299C14.4882 4.30421 14.7878 4.58516 15.1117 5.0197C15.5198 5.55444 15.9261 6.30373 16.3834 7.14705C16.6623 7.66146 16.9602 8.21086 17.2891 8.76789C17.8761 9.74651 18.5806 10.7679 19.5872 11.6358C20.1609 12.1296 20.8366 12.5654 21.6104 12.8792C22.4939 13.2396 23.4966 13.4336 24.5795 13.4318L24.5856 13.4318C25.8256 13.4333 26.9624 13.175 27.9331 12.7095C28.9078 12.2446 29.6995 11.5908 30.3378 10.8877C31.3829 9.72648 32.0732 8.44383 32.6814 7.31355L32.6815 7.31344L32.6817 7.31308C32.8141 7.06692 32.9427 6.828 33.0702 6.59913C33.5373 5.74374 33.9818 5.03455 34.3921 4.60157C34.6264 4.35098 34.8382 4.18983 35.0414 4.08396C35.2761 3.9659 35.5085 3.89657 35.8927 3.89248C35.8931 3.89248 35.8934 3.89248 35.8938 3.89248C36.336 3.89886 36.5781 3.98425 36.8513 4.14299C37.1191 4.30506 37.4188 4.58609 37.7427 5.0197C38.1507 5.55488 38.5569 6.30411 39.0141 7.14734C39.2931 7.66193 39.5911 8.21152 39.9201 8.76883C40.5071 9.74737 41.2116 10.7689 42.2173 11.6358C42.7911 12.1296 43.466 12.5654 44.2398 12.8792C45.1234 13.2396 46.1261 13.4336 47.2082 13.4318H47.2089C47.2642 13.4318 47.3747 13.4302 47.5172 13.4077C48.5782 13.238 49.3015 12.24 49.1318 11.1781C48.9778 10.2202 48.1493 9.5382 47.2089 9.53965V9.53944H47.2082C46.4803 9.53726 45.9704 9.40321 45.5305 9.19605C45.0938 8.98688 44.7116 8.68701 44.3301 8.26889C43.6397 7.52341 43.0232 6.38124 42.3532 5.14006C42.2791 5.00269 42.2043 4.86412 42.1286 4.72474C41.6133 3.79517 41.0543 2.82293 40.2408 1.94567C39.7753 1.44667 39.2156 0.98013 38.5399 0.629818C37.7711 0.226631 36.8572 -0.0023148 35.8997 9.69559e-05C35.898 9.2575e-05 35.8963 9.03845e-05 35.8946 9.03845e-05C34.7922 -0.00605956 33.7499 0.301982 32.9153 0.816864C32.0754 1.32894 31.4433 2.00155 30.9287 2.68886C30.2687 3.58272 29.7629 4.52448 29.2901 5.405L29.29 5.40511L29.2899 5.40526C29.0322 5.8852 28.7842 6.34694 28.5263 6.77281C28.0468 7.58016 27.554 8.2403 27.0348 8.6831C26.7366 8.93852 26.4322 9.1301 26.0827 9.27334C25.6826 9.43448 25.2131 9.53786 24.5795 9.53942L24.5752 9.53943C23.8488 9.53673 23.3393 9.4028 22.9011 9.19605C22.4636 8.98688 22.0806 8.68701 21.6991 8.26889C21.0098 7.52457 20.3941 6.38429 19.7253 5.1457C19.6502 5.00648 19.5743 4.86602 19.4976 4.72474C18.9823 3.79454 18.4233 2.82207 17.609 1.94474C17.1443 1.44573 16.5846 0.979584 15.9081 0.629271C15.1386 0.225754 14.2249 -0.00225285 13.2676 9.6047e-05L13.2628 9.03845e-05C12.1605 -0.00605956 11.1181 0.301982 10.2828 0.816864C9.44286 1.32894 8.81152 2.00155 8.29617 2.68886C7.63684 3.58292 7.13101 4.52459 6.65806 5.40504L6.65805 5.40506L6.65803 5.4051C6.40003 5.88539 6.15182 6.34747 5.89381 6.77366C5.41428 7.5807 4.92149 8.24092 4.40225 8.68489C4.10331 8.93999 3.79971 9.13158 3.45018 9.27388C3.04926 9.43596 2.57986 9.53942 1.94618 9.54121C0.871111 9.54121 0 10.4122 0 11.4874C0 12.5624 0.871111 13.4336 1.94618 13.4336C3.18862 13.4357 4.3275 13.1772 5.29981 12.7101C6.27446 12.2461 7.06697 11.5923 7.70532 10.8892C8.74847 9.73008 9.43813 8.44943 10.046 7.32062C10.1799 7.0721 10.3097 6.83094 10.4385 6.60006C10.9048 5.74437 11.3501 5.03455 11.7604 4.60157C11.9947 4.35098 12.2056 4.18983 12.4096 4.08396Z" fill="#E2E2E2"/>
</svg>
