<svg width="52" height="52" viewBox="0 0 52 52" fill="none" xmlns="http://www.w3.org/2000/svg">
<path d="M42.115 41.6239L18.5586 4.53643C17.0031 2.08872 13.7575 1.36306 11.3098 2.9186C8.8601 4.47362 8.13656 7.71975 9.69158 10.1695L33.248 47.2569C34.8035 49.7046 38.049 50.4302 40.4993 48.8732C42.947 47.3176 43.6706 44.0716 42.115 41.6239Z" fill="#E2E2E2"/>
<path d="M10.1683 42.113L47.2598 18.5576C49.7075 17.0021 50.4331 13.7566 48.8781 11.3068C47.3226 8.85915 44.077 8.13353 41.6267 9.69058L4.53575 33.2439C2.08805 34.7994 1.36188 38.0469 2.91742 40.4946C4.47447 42.9449 7.72058 43.6685 10.1683 42.113Z" fill="#E2E2E2"/>
</svg>
