<svg width="158" height="43" viewBox="0 0 158 43" fill="none" xmlns="http://www.w3.org/2000/svg">
<path fill-rule="evenodd" clip-rule="evenodd" d="M39.7223 13.0725C40.4748 12.694 41.2174 12.4719 42.4534 12.4595L42.4653 12.4595C43.8731 12.4813 44.6462 12.7525 45.5184 13.2612C46.3756 13.7772 47.3349 14.6765 48.3715 16.0675C49.6778 17.7791 50.9783 20.1776 52.4421 22.877L52.4421 22.877C53.335 24.5236 54.2886 26.2822 55.3412 28.0652C57.2201 31.1977 59.4752 34.4672 62.6971 37.2451C64.5336 38.8259 66.6965 40.2209 69.1733 41.2253C71.9896 42.3739 75.1839 42.9945 78.6332 42.9941L78.6771 42.9942C82.6541 43.0019 86.2997 42.1747 89.412 40.6823C92.5318 39.1942 95.066 37.1013 97.1093 34.8509C100.454 31.1338 102.664 27.0281 104.611 23.4102L104.611 23.41L104.611 23.4096C105.036 22.6213 105.447 21.8562 105.856 21.1234C107.351 18.3853 108.774 16.1153 110.087 14.7293C110.837 13.9272 111.515 13.4114 112.165 13.0725C112.918 12.694 113.663 12.4719 114.896 12.4595C114.899 12.4595 114.903 12.4595 114.906 12.4595C116.313 12.4813 117.087 12.7545 117.959 13.2612C118.816 13.78 119.775 14.6795 120.812 16.0675C122.118 17.7805 123.418 20.1788 124.882 22.8779C125.775 24.525 126.728 26.2843 127.781 28.0682C129.66 31.2004 131.915 34.4702 135.135 37.2451C136.971 38.8259 139.132 40.2209 141.609 41.2253C144.437 42.3788 147.646 42.9998 151.11 42.994H151.113C151.289 42.994 151.643 42.989 152.099 42.917C155.496 42.3738 157.811 39.1793 157.267 35.7802C156.775 32.7139 154.123 30.5309 151.113 30.5355V30.5348H151.11C148.78 30.5279 147.148 30.0988 145.74 29.4357C144.342 28.7661 143.119 27.8063 141.898 26.4679C139.688 24.0817 137.714 20.4257 135.57 16.4528C135.332 16.0131 135.093 15.5695 134.851 15.1233C133.201 12.1478 131.412 9.03576 128.808 6.2277C127.318 4.63043 125.526 3.13708 123.363 2.01575C120.899 0.723237 117.969 -0.00986702 114.899 0.00010033C114.889 0.00010033 114.88 0.000121368 114.87 0.000163401C111.351 -0.0145906 108.025 0.970638 105.36 2.61473C102.671 4.25386 100.648 6.40681 99.0006 8.60686C96.888 11.468 95.2691 14.4826 93.7554 17.301C92.9303 18.8376 92.1364 20.3159 91.3108 21.6793C89.7758 24.2636 88.1985 26.3767 86.5364 27.794C85.582 28.6116 84.6077 29.2248 83.4889 29.6833C82.2148 30.1964 80.7213 30.5266 78.7092 30.5349L78.6773 30.5348C76.3449 30.5279 74.7102 30.0988 73.3048 29.4357C71.9044 28.7661 70.6785 27.8063 69.4575 26.4679C67.251 24.0854 65.2802 20.4355 63.1395 16.4708C62.8989 16.0252 62.6561 15.5756 62.4106 15.1233C60.761 12.1458 58.9718 9.03302 56.3653 6.22472C54.8777 4.62745 53.086 3.13533 50.9206 2.014C48.4537 0.720242 45.5233 -0.00986662 42.4534 0.000100734L42.4263 0.000158193C38.9079 -0.0143569 35.5816 0.970833 32.9146 2.61473C30.226 4.25386 28.2051 6.40681 26.5555 8.60686C24.445 11.4687 22.8259 14.4829 21.312 17.3012C20.4861 18.8386 19.6916 20.3178 18.8657 21.682C17.3307 24.2653 15.7534 26.3786 14.0913 27.7997C13.1344 28.6163 12.1626 29.2296 11.0438 29.6851C9.76049 30.2039 8.25795 30.535 6.2296 30.5408C2.78837 30.5408 0 33.3286 0 36.7703C0 40.2113 2.78837 42.9999 6.2296 42.9999C10.2066 43.0067 13.852 42.1794 16.9643 40.6843C20.0841 39.1989 22.6209 37.1063 24.6642 34.8556C28.0032 31.1453 30.2108 27.046 32.1566 23.4328L32.1566 23.4328C32.585 22.6373 33.0007 21.8654 33.413 21.1264C34.9056 18.3873 36.331 16.1153 37.6442 14.7293C38.3942 13.9272 39.0694 13.4114 39.7223 13.0725Z" fill="#F4F4FA"/>
</svg>
