<svg width="77" height="21" viewBox="0 0 77 21" fill="none" xmlns="http://www.w3.org/2000/svg">
<path fill-rule="evenodd" clip-rule="evenodd" d="M56.1101 6.08488C55.5088 6.09118 55.1454 6.19957 54.7782 6.38423C54.4606 6.54973 54.1296 6.80164 53.7633 7.19338C53.1219 7.87024 52.4271 8.97888 51.6969 10.3161C51.4975 10.6739 51.2965 11.0474 51.0894 11.4322L51.0892 11.4327L51.0891 11.4329C50.1382 13.1998 49.0592 15.2049 47.4255 17.0202C46.4276 18.1192 45.1899 19.1413 43.6663 19.8681C42.1483 20.596 40.3705 20.9999 38.4311 20.9972L38.4238 20.9972C36.731 21 35.1636 20.6967 33.7823 20.1334C32.5727 19.6429 31.5164 18.9616 30.6195 18.1896C29.046 16.8329 27.9447 15.2362 27.0271 13.7064C26.513 12.8356 26.0473 11.9768 25.6113 11.1727L25.6112 11.1726C24.8964 9.85427 24.2612 8.68294 23.6233 7.84702C23.117 7.16772 22.6485 6.72852 22.2299 6.47649C21.8028 6.22738 21.4243 6.09486 20.733 6.08488L20.7311 6.08488C20.1287 6.09118 19.7664 6.19957 19.3993 6.38423C19.0804 6.54973 18.7506 6.80164 18.3843 7.19338C17.743 7.87024 17.0469 8.97985 16.318 10.3175C16.1166 10.6784 15.9136 11.0554 15.7044 11.4439C14.7541 13.2085 13.676 15.2105 12.0453 17.0225C11.0474 18.1217 9.80852 19.1436 8.2849 19.8691C6.76494 20.5992 4.9846 21.0032 3.04236 21C1.36176 21 0 19.6381 0 17.9576C0 16.2768 1.36176 14.9152 3.04236 14.9152C4.03295 14.9124 4.76675 14.7507 5.39347 14.4974C5.93988 14.2749 6.41449 13.9754 6.88179 13.5766C7.69349 12.8826 8.46384 11.8505 9.21348 10.5889C9.61682 9.92263 10.0048 9.20027 10.4082 8.44943L10.4082 8.44942L10.4082 8.4494C11.1475 7.07304 11.9382 5.60098 12.9689 4.20335C13.7746 3.12891 14.7615 2.07746 16.0746 1.27696C17.3804 0.472073 19.0098 -0.00947256 20.733 0.000141294L20.7381 0.000145483C22.2355 -0.0039004 23.6648 0.352572 24.8682 0.983695C25.9257 1.53132 26.8007 2.26003 27.5272 3.04009C28.8002 4.41158 29.674 5.93179 30.4796 7.38592C30.5995 7.60676 30.718 7.82633 30.8355 8.04396C31.881 9.98019 32.8435 11.7627 33.9211 12.9263C34.5174 13.5799 35.1161 14.0487 35.8 14.3757C36.4854 14.699 37.2824 14.9085 38.4188 14.9125L38.4237 14.9125C39.4143 14.91 40.1481 14.7484 40.7736 14.4965C41.32 14.2726 41.7959 13.9731 42.262 13.5738C43.0737 12.8816 43.844 11.8496 44.5936 10.5876C44.9968 9.92176 45.3845 9.19988 45.7874 8.44956L45.7875 8.44944L45.7875 8.44936C46.5267 7.07288 47.3174 5.60068 48.3491 4.20335C49.1535 3.12891 50.1417 2.07746 51.4548 1.27696C52.7593 0.472073 54.3888 -0.00947256 56.112 0.000141293C56.1139 0.000141293 56.1159 0.000143098 56.1178 0.000146708C57.6154 -0.00398008 59.0449 0.353961 60.2472 0.984549C61.3035 1.53217 62.1785 2.26149 62.9063 3.04155C64.178 4.41292 65.0517 5.93276 65.8573 7.38592C65.9756 7.60379 66.0925 7.8204 66.2084 8.03512C67.2558 9.97541 68.2196 11.7609 69.2988 12.9263C69.8951 13.5799 70.4926 14.0487 71.1754 14.3757C71.8629 14.6995 72.6601 14.9091 73.7979 14.9125H73.7991V14.9128C75.2692 14.9105 76.5643 15.9767 76.805 17.4741C77.0703 19.1342 75.9397 20.6943 74.281 20.9596C74.0583 20.9948 73.8855 20.9972 73.7991 20.9972H73.7979C72.1064 21 70.5389 20.6967 69.1577 20.1334C67.948 19.6429 66.8929 18.9616 65.996 18.1896C64.4237 16.8344 63.3224 15.2375 62.4049 13.7078C61.8906 12.8366 61.4248 11.9775 60.9886 11.173C60.2739 9.85486 59.6389 8.68362 59.001 7.84702C58.4948 7.16918 58.0263 6.72986 57.6077 6.47649C57.1805 6.22836 56.802 6.09486 56.1108 6.08488C56.1106 6.08488 56.1103 6.08488 56.1101 6.08488Z" fill="url(#paint0_linear)"/>
<defs>
<linearGradient id="paint0_linear" x1="-5.75688e-07" y1="10.3019" x2="76.8436" y2="10.3019" gradientUnits="userSpaceOnUse">
<stop stop-color="#515CE2"/>
<stop offset="1" stop-color="#7882F4"/>
</linearGradient>
</defs>
</svg>
