<svg width="115" height="115" viewBox="0 0 115 115" fill="none" xmlns="http://www.w3.org/2000/svg">
<path d="M94.5726 93.1776C93.6423 93.1776 92.8881 93.9319 92.8881 94.8622V110.7C92.8881 111.213 92.4707 111.63 91.958 111.63H82.9024V78.4563C82.9024 77.5259 82.1481 76.7717 81.2178 76.7717C80.2875 76.7717 79.5332 77.5259 79.5332 78.4563V111.631H61.2983L66.5863 105.813C67.164 105.178 67.4364 104.272 67.3149 103.39C67.3127 103.373 67.31 103.356 67.3071 103.339L62.2707 73.5859L63.6275 71.5433C64.3777 72.076 64.9556 72.589 66.0394 72.589C67.1418 72.589 68.1725 71.972 68.6797 70.9563V70.9561L73.9917 60.3096L86.0927 64.9961C86.5305 65.1839 92.8876 68.0468 92.8876 75.6062V87.0006C92.8874 87.9308 93.6416 88.6852 94.5722 88.6852C95.5025 88.6852 96.2568 87.931 96.2568 87.0006V75.6062C96.2568 65.6461 87.7286 62.0257 87.3656 61.8763C87.355 61.8718 87.3443 61.8675 87.3335 61.8635L67.1932 54.0637V49.3402C70.3921 46.8524 72.6101 43.1645 73.1669 38.9571C74.7619 38.8448 76.2418 38.2492 77.4504 37.2099C79.0288 35.8526 79.9344 33.8772 79.9344 31.791C79.9344 30.0597 79.3097 28.4066 78.1966 27.1184V20.8781C78.1964 9.36599 68.8306 0 57.3185 0C45.8063 0 36.4406 9.36599 36.4406 20.8781V27.282C35.3155 28.5571 34.7037 30.1266 34.7037 31.7908C34.7037 33.8776 35.6088 35.8528 37.1876 37.2104C38.3953 38.2492 39.8744 38.8442 41.4689 38.9567C42.0302 43.2429 44.3129 47.0682 47.7842 49.5895V54.0637L27.6658 61.8633C27.6552 61.8673 27.6446 61.8716 27.6341 61.8758C27.2709 62.0252 18.7429 65.6457 18.7429 75.6058V110.7C18.7429 113.071 20.6716 114.999 23.0424 114.999H39.0923C40.0226 114.999 40.7769 114.245 40.7769 113.315C40.7769 112.384 40.0226 111.63 39.0923 111.63H35.4678V78.4563C35.4678 77.5259 34.7135 76.7717 33.7832 76.7717C32.8529 76.7717 32.0986 77.5259 32.0986 78.4563V111.631H23.0426C22.5298 111.631 22.1125 111.213 22.1125 110.701V75.606C22.1125 68.0212 28.5123 65.1648 28.9054 64.9968L40.997 60.3092L46.3095 70.9561C46.8177 71.9743 47.8498 72.589 48.95 72.589C50.0283 72.589 50.6006 72.0839 51.3618 71.5433L52.7187 73.5859L47.6827 103.339C47.6798 103.356 47.6773 103.373 47.6749 103.39C47.5531 104.272 47.8256 105.177 48.4035 105.813L53.6915 111.631H46.9543C46.024 111.631 45.2697 112.385 45.2697 113.315C45.2697 114.246 46.024 115 46.9543 115H91.9582C94.3289 115 96.2577 113.071 96.2577 110.701V94.8624C96.2572 93.9319 95.503 93.1776 94.5726 93.1776ZM70.8361 59.0878L65.8837 69.0133C65.7606 68.9259 63.1361 67.0612 59.9278 64.783C61.3199 63.0645 59.6912 65.0747 66.045 57.2323L70.8361 59.0878ZM60.8788 69.5914L59.5944 71.5246H55.3936L54.1092 69.5914L57.4941 67.1874L60.8788 69.5914ZM51.1532 54.6073V51.4546C53.1998 52.2796 55.387 52.6621 57.5231 52.6621C59.7317 52.6621 61.8976 52.1914 63.8238 51.3491V54.621L57.4941 62.434L51.1532 54.6073ZM76.565 31.791C76.5648 32.8945 76.0868 33.9387 75.2535 34.6554C74.7026 35.1294 74.037 35.4324 73.3082 35.5509V28.0317C75.2443 28.3462 76.565 29.9521 76.565 31.791ZM41.3296 35.5509C39.3715 35.2331 38.0728 33.6141 38.0728 31.7908C38.0728 29.9898 39.5658 28.524 41.3296 28.1164V35.5509ZM41.4202 24.6837C40.8836 24.7452 40.2686 24.8905 39.8102 25.0464V20.8781C39.8102 11.2237 47.6643 3.36937 57.3187 3.36937C66.9731 3.36937 74.8272 11.2237 74.8272 20.8781V24.9307C74.3376 24.7818 73.8297 24.6834 73.3084 24.6372C73.3084 23.0117 73.3226 23.3252 68.0049 17.6083C67.027 16.5575 65.4093 16.3374 64.1783 17.1417C58.3092 20.9756 51.1498 22.9016 44.544 22.4272C43.0951 22.3188 41.7753 23.2731 41.4202 24.6837ZM44.699 36.8773V26.3673V25.8137C51.9707 26.2395 59.5947 24.0792 65.7537 20.1349C68.1925 22.7534 69.5132 24.1269 69.939 24.6493C69.939 25.9709 69.939 35.3643 69.939 36.877C69.939 43.7157 64.3629 49.2925 57.5233 49.2925C49.843 49.2928 44.699 43.3348 44.699 36.8773ZM49.1047 69.0133L44.1523 59.0878L48.9349 57.2354L55.0535 64.7879C51.942 66.9974 49.3871 68.8127 49.1047 69.0133ZM51.0375 103.703L55.9135 74.8935H59.074L63.9501 103.703L57.4939 110.805L51.0375 103.703Z" fill="#F4F4FA"/>
</svg>
