<svg width="115" height="115" viewBox="0 0 115 115" fill="none" xmlns="http://www.w3.org/2000/svg">
<g opacity="0.1">
<path d="M111.652 20.4403C111.645 20.4403 111.638 20.4395 111.631 20.4395H81.084V17.0703C81.084 11.4972 76.5497 6.96289 70.9766 6.96289H44.0234C38.4503 6.96289 33.916 11.4972 33.916 17.0703V20.4395H3.36914C1.4933 20.4395 0 21.9766 0 23.8086V97.9297C0 103.503 4.5343 108.037 10.1074 108.037H104.893C110.466 108.037 115 103.503 115 97.9297V23.8797C115 23.8753 115 23.8709 115 23.8665C114.871 21.6537 113.51 20.4526 111.652 20.4403V20.4403ZM40.6543 17.0703C40.6543 15.2129 42.166 13.7012 44.0234 13.7012H70.9766C72.834 13.7012 74.3457 15.2129 74.3457 17.0703V20.4395H40.6543V17.0703ZM106.956 27.1777L96.4934 58.5651C96.0345 59.9435 94.7501 60.8691 93.298 60.8691H74.3457V57.5C74.3457 55.6391 72.8375 54.1309 70.9766 54.1309H44.0234C42.1625 54.1309 40.6543 55.6391 40.6543 57.5V60.8691H21.702C20.2499 60.8691 18.9655 59.9435 18.5066 58.5651L8.04382 27.1777H106.956ZM67.6074 60.8691V67.6074H47.3926V60.8691H67.6074ZM108.262 97.9297C108.262 99.7871 106.75 101.299 104.893 101.299H10.1074C8.25001 101.299 6.73828 99.7871 6.73828 97.9297V44.57L12.114 60.6963C13.4915 64.8305 17.3449 67.6074 21.702 67.6074H40.6543V70.9766C40.6543 72.8375 42.1625 74.3457 44.0234 74.3457H70.9766C72.8375 74.3457 74.3457 72.8375 74.3457 70.9766V67.6074H93.298C97.6551 67.6074 101.509 64.8305 102.886 60.6963L108.262 44.57V97.9297Z" fill="white"/>
</g>
</svg>
