<svg width="64" height="64" viewBox="0 0 64 64" fill="none" xmlns="http://www.w3.org/2000/svg">
<rect width="64" height="64" fill="#F5F5F5"/>
<path d="M50.875 55.125H14.125C12.7326 55.125 11.3973 54.5719 10.4127 53.5873C9.42812 52.6027 8.875 51.2674 8.875 49.875V13.125C8.875 11.7326 9.42812 10.3973 10.4127 9.41269C11.3973 8.42812 12.7326 7.875 14.125 7.875H50.875C52.2674 7.875 53.6027 8.42812 54.5873 9.41269C55.5719 10.3973 56.125 11.7326 56.125 13.125V49.875C56.125 51.2674 55.5719 52.6027 54.5873 53.5873C53.6027 54.5719 52.2674 55.125 50.875 55.125ZM14.125 13.125V49.875H50.875V13.125H14.125ZM48.25 44.625H16.75L24.625 34.125L27.25 36.75L35.125 26.25L48.25 44.625ZM23.3125 28.875C22.2682 28.875 21.2667 28.4602 20.5283 27.7217C19.7898 26.9833 19.375 25.9818 19.375 24.9375C19.375 23.8932 19.7898 22.8917 20.5283 22.1533C21.2667 21.4148 22.2682 21 23.3125 21C24.3568 21 25.3583 21.4148 26.0967 22.1533C26.8352 22.8917 27.25 23.8932 27.25 24.9375C27.25 25.9818 26.8352 26.9833 26.0967 27.7217C25.3583 28.4602 24.3568 28.875 23.3125 28.875Z" fill="#585858"/>
</svg>
